<svg fill="none" xmlns="http://www.w3.org/2000/svg" viewBox="0 0 887 919">
  <mask id="KJZ_MlvMsa" maskUnits="userSpaceOnUse" x="0" y="0" width="887" height="919">
    <path fill="#029D7F" d="M0 0h887v919H0z"/>
  </mask>
  <g mask="url(#KJZ_MlvMsa)">
    <path fill="#251A3F" d="M0 0h887v919H0z"/>
    <path d="M476.103 773.025L324.11 612.671a75.458 75.458 0 00-52.656-23.455 75.447 75.447 0 00-53.836 20.605L9.671 806.925a75.46 75.46 0 00-23.456 52.657A75.451 75.451 0 006.82 913.417l151.994 160.353a75.47 75.47 0 0052.656 23.46c19.954.52 39.322-6.87 53.835-20.61l207.947-197.103a75.454 75.454 0 0023.456-52.656 75.455 75.455 0 00-20.605-53.836zM255.699 969.773l-26.462 25.082L89.391 847.316l26.461-25.081 139.847 147.538zm-96.058-189.044l26.424-25.046 139.846 147.538-26.424 25.046-139.846-147.538zm210.097 80.951l-60.723-64.064 26.424-25.046 60.723 64.063-26.424 25.047zm402.3-579.036a242.181 242.181 0 0085.127-75.215l117.884 3.407L874.91 24.038C828.118-63.248 706.197-88.974 602.594-33.435 498.992 22.105 452.931 137.887 499.721 225.17c46.79 87.281 168.713 113.011 272.315 57.472l.002.003zM580.889 127.552l167.793-89.95c5.749-3.082 12.919-.93 16.009 4.834 3.082 5.749.913 12.928-4.835 16.01l-167.793 89.95c-5.748 3.081-12.927.913-16.009-4.835-3.09-5.765-.913-12.928 4.835-16.009zm33.889 63.215l86.406-46.321c5.764-3.09 12.927-.913 16.009 4.835a11.813 11.813 0 01-4.835 16.009l-86.406 46.321c-5.749 3.081-12.919.929-16.009-4.835-3.082-5.748-.914-12.928 4.835-16.009z" fill="#62567D" fill-opacity=".08"/>
    <path d="M1100.72 350.819s-180.077 81.277-395.271 107.429c-215.195 26.153-229.742 124.238-357.745 202.43-128.003 78.191-130.305-57.831-236.66-65.914-106.355-8.083-87.806 136.325-197.51 37.447-109.702-98.878-159.858-42.025-159.858-42.025" stroke="#02977A" stroke-dasharray="15 15"/>
    <path d="M1089.1 440.766S911.737 501.8 697.962 517.384c-213.775 15.585-225.743 94.469-351.286 154.353-125.544 59.883-131.345-50.091-237.54-59.365-106.195-9.273-83.987 107.896-195.86 25.167-111.872-82.729-160.389-38.08-160.389-38.08" stroke="#C2387A" stroke-dasharray="15 15"/>
    <path d="M1075.9 539.032s-174.385 38.863-386.605 42.873c-212.22 4.01-221.364 61.865-344.214 101.697-122.849 39.831-132.482-41.614-238.502-52.191-106.02-10.579-79.805 76.758-194.054 11.717-114.248-65.041-160.969-33.761-160.969-33.761" stroke="#AD883E" stroke-dasharray="15 15"/>
    <path d="M1062.29 640.345s-171.314 16.005-381.931 8.082c-210.617-7.923-216.848 28.25-336.921 47.408-120.072 19.159-133.656-32.873-239.496-44.796-105.84-11.922-75.492 44.657-192.19-2.148s-161.568-29.307-161.568-29.307" stroke="#251A3F" stroke-dasharray="15 15"/>
  </g>
</svg>
