<svg xmlns="http://www.w3.org/2000/svg" fill="none" viewBox="0 0 193 36">
  <path d="M43.016 13.648c.432-.64 1.024-1.16 1.776-1.56.768-.4 1.64-.6 2.616-.6 1.136 0 2.16.28 3.072.84.928.56 1.656 1.36 2.184 2.4.544 1.024.816 2.216.816 3.576 0 1.36-.272 2.568-.816 3.624-.528 1.04-1.256 1.848-2.184 2.424-.912.576-1.936.864-3.072.864-.992 0-1.864-.192-2.616-.576-.736-.4-1.328-.912-1.776-1.536V25h-3.36V7.24h3.36v6.408zm7.032 4.656c0-.8-.168-1.488-.504-2.064-.32-.592-.752-1.04-1.296-1.344a3.403 3.403 0 00-1.728-.456c-.608 0-1.184.16-1.728.48-.528.304-.96.752-1.296 1.344-.32.592-.48 1.288-.48 2.088s.16 1.496.48 2.088c.336.592.768 1.048 1.296 1.368a3.49 3.49 0 001.728.456c.624 0 1.2-.16 1.728-.48a3.45 3.45 0 001.296-1.368c.336-.592.504-1.296.504-2.112zm9.234-4.536a4.755 4.755 0 011.68-1.656c.704-.4 1.504-.6 2.4-.6v3.528h-.888c-1.056 0-1.856.248-2.4.744-.528.496-.792 1.36-.792 2.592V25h-3.36V11.704h3.36v2.064zm18.703 4.296c0 .48-.032.912-.096 1.296h-9.72c.08.96.416 1.712 1.008 2.256.592.544 1.32.816 2.184.816 1.248 0 2.136-.536 2.664-1.608h3.624c-.384 1.28-1.12 2.336-2.208 3.168-1.088.816-2.424 1.224-4.008 1.224-1.28 0-2.432-.28-3.456-.84a6.182 6.182 0 01-2.376-2.424c-.56-1.04-.84-2.24-.84-3.6 0-1.376.28-2.584.84-3.624a5.861 5.861 0 012.352-2.4c1.008-.56 2.168-.84 3.48-.84 1.264 0 2.392.272 3.384.816a5.63 5.63 0 012.328 2.328c.56.992.84 2.136.84 3.432zm-3.48-.96c-.016-.864-.328-1.552-.936-2.064-.608-.528-1.352-.792-2.232-.792-.832 0-1.536.256-2.112.768-.56.496-.904 1.192-1.032 2.088h6.312zm5.068 1.2c0-1.344.264-2.536.792-3.576.544-1.04 1.272-1.84 2.184-2.4.928-.56 1.96-.84 3.096-.84.992 0 1.856.2 2.592.6.752.4 1.352.904 1.8 1.512v-1.896h3.384V25h-3.384v-1.944c-.432.624-1.032 1.144-1.8 1.56-.752.4-1.624.6-2.616.6a5.71 5.71 0 01-3.072-.864c-.912-.576-1.64-1.384-2.184-2.424-.528-1.056-.792-2.264-.792-3.624zm10.464.048c0-.816-.16-1.512-.48-2.088-.32-.592-.752-1.04-1.296-1.344a3.397 3.397 0 00-1.752-.48c-.624 0-1.2.152-1.728.456-.528.304-.96.752-1.296 1.344-.32.576-.48 1.264-.48 2.064s.16 1.504.48 2.112c.336.592.768 1.048 1.296 1.368.544.32 1.12.48 1.728.48.624 0 1.208-.152 1.752-.456.544-.32.976-.768 1.296-1.344.32-.592.48-1.296.48-2.112zm5.802-.048c0-1.344.264-2.536.792-3.576.544-1.04 1.28-1.84 2.208-2.4.928-.56 1.96-.84 3.096-.84a5.55 5.55 0 012.472.576c.784.368 1.408.864 1.872 1.488V7.24h3.408V25h-3.408v-1.968c-.416.656-1 1.184-1.752 1.584-.752.4-1.624.6-2.616.6a5.711 5.711 0 01-3.072-.864c-.928-.576-1.664-1.384-2.208-2.424-.528-1.056-.792-2.264-.792-3.624zm10.464.048c0-.816-.16-1.512-.48-2.088-.32-.592-.752-1.04-1.296-1.344a3.397 3.397 0 00-1.752-.48c-.624 0-1.2.152-1.728.456-.528.304-.96.752-1.296 1.344-.32.576-.48 1.264-.48 2.064s.16 1.504.48 2.112c.336.592.768 1.048 1.296 1.368.544.32 1.12.48 1.728.48.624 0 1.208-.152 1.752-.456.544-.32.976-.768 1.296-1.344.32-.592.48-1.296.48-2.112zm5.801 0c0-1.376.281-2.576.841-3.6.56-1.04 1.336-1.84 2.328-2.4.992-.576 2.128-.864 3.408-.864 1.648 0 3.008.416 4.08 1.248 1.088.816 1.816 1.968 2.184 3.456h-3.624c-.192-.576-.52-1.024-.984-1.344-.448-.336-1.008-.504-1.68-.504-.96 0-1.72.352-2.28 1.056-.56.688-.84 1.672-.84 2.952 0 1.264.28 2.248.84 2.952.56.688 1.32 1.032 2.28 1.032 1.36 0 2.248-.608 2.664-1.824h3.624c-.368 1.44-1.096 2.584-2.184 3.432-1.088.848-2.448 1.272-4.08 1.272-1.28 0-2.416-.28-3.408-.84a6.108 6.108 0 01-2.328-2.4c-.56-1.04-.841-2.248-.841-3.624zm18.662-4.584a4.755 4.755 0 011.68-1.656c.704-.4 1.504-.6 2.4-.6v3.528h-.888c-1.056 0-1.856.248-2.4.744-.528.496-.792 1.36-.792 2.592V25h-3.36V11.704h3.36v2.064zm18.895-2.064V25h-3.384v-1.68c-.432.576-1 1.032-1.704 1.368-.688.32-1.44.48-2.256.48-1.04 0-1.96-.216-2.76-.648-.8-.448-1.432-1.096-1.896-1.944-.448-.864-.672-1.888-.672-3.072v-7.8h3.36v7.32c0 1.056.264 1.872.792 2.448.528.56 1.248.84 2.16.84.928 0 1.656-.28 2.184-.84.528-.576.792-1.392.792-2.448v-7.32h3.384zm19.827-.192c1.632 0 2.944.504 3.936 1.512 1.008.992 1.512 2.384 1.512 4.176V25h-3.36v-7.344c0-1.04-.264-1.832-.792-2.376-.528-.56-1.248-.84-2.16-.84-.912 0-1.64.28-2.184.84-.528.544-.792 1.336-.792 2.376V25h-3.36v-7.344c0-1.04-.264-1.832-.792-2.376-.528-.56-1.248-.84-2.16-.84-.928 0-1.664.28-2.208.84-.528.544-.792 1.336-.792 2.376V25h-3.36V11.704h3.36v1.608c.432-.56.984-1 1.656-1.32.688-.32 1.44-.48 2.256-.48 1.04 0 1.968.224 2.784.672a4.55 4.55 0 011.896 1.872c.432-.768 1.056-1.384 1.872-1.848a5.43 5.43 0 012.688-.696zm11.997 2.136c.432-.64 1.024-1.16 1.776-1.56.768-.4 1.64-.6 2.616-.6 1.136 0 2.16.28 3.072.84.928.56 1.656 1.36 2.184 2.4.544 1.024.816 2.216.816 3.576 0 1.36-.272 2.568-.816 3.624-.528 1.04-1.256 1.848-2.184 2.424-.912.576-1.936.864-3.072.864-.992 0-1.864-.192-2.616-.576-.736-.4-1.328-.912-1.776-1.536V25h-3.36V7.24h3.36v6.408zm7.032 4.656c0-.8-.168-1.488-.504-2.064-.32-.592-.752-1.04-1.296-1.344a3.403 3.403 0 00-1.728-.456c-.608 0-1.184.16-1.728.48-.528.304-.96.752-1.296 1.344-.32.592-.48 1.288-.48 2.088s.16 1.496.48 2.088c.336.592.768 1.048 1.296 1.368a3.49 3.49 0 001.728.456c.624 0 1.2-.16 1.728-.48a3.45 3.45 0 001.296-1.368c.336-.592.504-1.296.504-2.112z" fill="#251A3F"/>
  <path d="M25 28.2V11.317A4.117 4.117 0 0020.883 7.2v0c-1.93 0-3.6 1.34-4.02 3.224l-3.655 16.453a1.69 1.69 0 01-1.65 1.323v0a1.69 1.69 0 01-1.62-1.204L4 7.2" stroke="#251A3F" stroke-width="3"/>
  <circle cx="4.5" cy="10.5" r="4.5" transform="rotate(-90 4.5 10.5)" fill="#DD6F6F"/>
  <circle cx="25" cy="24" transform="rotate(-90 25 24)" fill="#F7B129" r="6"/>
</svg>
