<svg xmlns="http://www.w3.org/2000/svg" fill="none" viewBox="0 0 109 95">
  <path d="M97.402 48.974A44.997 44.997 0 0184.847 80.21a40.508 40.508 0 01-1.499 1.49 44.713 44.713 0 01-2.422 2.144 44.95 44.95 0 01-28.648 10.26c-8.057 0-18.19-4.303-27.385-10.26a92.822 92.822 0 01-2.262-1.513 92.797 92.797 0 01-11.117-8.958 65.31 65.31 0 01-5.811-6.214c-7.066-8.717-8.625-16.57 1.449-18.185 1.192-.19 2.35-.394 3.472-.611a96.849 96.849 0 004.668-1.013 79.19 79.19 0 005.642-1.582 70.51 70.51 0 001.735-.584c8.35-2.932 13.938-6.757 17.742-10.907a29.996 29.996 0 004.05-5.578 32.382 32.382 0 002.337-5.214l.035-.1c3.026-8.731 2.105-16.83 5.445-19.541C66.55-7.745 84.32 8.758 92.662 28.22a66.848 66.848 0 011.668 4.292 60.59 60.59 0 011.82 6.255c.811 3.497 1.252 6.946 1.252 10.207z" fill="#F2F2F2"/>
  <path d="M53.29 94.093c-.336.008-.674.012-1.013.012-8.056 0-18.189-4.304-27.385-10.261a93.112 93.112 0 01-2.262-1.513l.656-3.989 19.84-2.635 9.958 7.616.207 10.77z" fill="#2F2E41"/>
  <path d="M54.246 22.871H51.42a.33.33 0 00-.33.33v2.83a.33.33 0 00.33.328h2.827a.33.33 0 00.33-.329v-2.829a.331.331 0 00-.33-.33z" fill="#fff"/>
  <path d="M54.246 27.692H51.42a.33.33 0 00-.33.33v2.829a.33.33 0 00.33.329h2.827a.33.33 0 00.33-.329v-2.829a.331.331 0 00-.33-.33zm0 4.82H51.42a.33.33 0 00-.33.33v2.828a.33.33 0 00.33.33h2.827a.33.33 0 00.33-.33v-2.828a.332.332 0 00-.33-.33zm.326 5.093a.333.333 0 00-.326-.272H51.42a.33.33 0 00-.33.33v2.828a.33.33 0 00.33.33h2.827a.33.33 0 00.33-.33v-2.828a.3.3 0 00-.005-.058zm-.197 4.575a.336.336 0 00-.129-.026H51.42a.329.329 0 00-.33.33v2.828a.33.33 0 00.33.33h2.827a.33.33 0 00.33-.33v-2.828a.332.332 0 00-.201-.305zm5.81-19.309h-2.827a.33.33 0 00-.33.33v2.83a.331.331 0 00.33.328h2.827a.33.33 0 00.33-.329v-2.829a.33.33 0 00-.33-.33z" fill="#E6E6E6"/>
  <path d="M60.185 27.692h-2.827a.33.33 0 00-.33.33v2.829a.331.331 0 00.33.329h2.827a.33.33 0 00.33-.329v-2.829a.33.33 0 00-.33-.33zm0 4.82h-2.827a.33.33 0 00-.33.33v2.828a.329.329 0 00.33.33h2.827a.33.33 0 00.33-.33v-2.828a.331.331 0 00-.33-.33zm0 4.821h-2.827a.33.33 0 00-.33.33v2.828a.329.329 0 00.33.33h2.827a.33.33 0 00.33-.33v-2.828a.331.331 0 00-.33-.33z" fill="#2E8C8D"/>
  <path d="M60.185 42.154h-2.827a.329.329 0 00-.33.33v2.828a.329.329 0 00.33.33h2.827a.33.33 0 00.33-.33v-2.828a.33.33 0 00-.33-.33z" fill="#E6E6E6"/>
  <path d="M66.124 22.871h-2.827a.33.33 0 00-.33.33v2.83a.33.33 0 00.33.328h2.827a.33.33 0 00.33-.329v-2.829a.33.33 0 00-.33-.33zm0 4.821h-2.827a.33.33 0 00-.33.33v2.829a.33.33 0 00.33.329h2.827a.33.33 0 00.33-.329v-2.829a.33.33 0 00-.33-.33z" fill="#2E8C8D"/>
  <path d="M66.124 32.512h-2.827a.33.33 0 00-.33.33v2.828a.329.329 0 00.33.33h2.827a.33.33 0 00.33-.33v-2.828a.331.331 0 00-.33-.33z" fill="#E6E6E6"/>
  <path d="M66.124 37.333h-2.827a.33.33 0 00-.33.33v2.828a.329.329 0 00.33.33h2.827a.33.33 0 00.33-.33v-2.828a.331.331 0 00-.33-.33zm0 4.821h-2.827a.329.329 0 00-.33.33v2.828a.329.329 0 00.33.33h2.827a.33.33 0 00.33-.33v-2.828a.33.33 0 00-.33-.33zm5.939-19.283h-2.827a.33.33 0 00-.33.33v2.83a.33.33 0 00.33.328h2.827a.33.33 0 00.33-.329v-2.829a.331.331 0 00-.33-.33z" fill="#2E8C8D"/>
  <path d="M72.063 27.692h-2.827a.33.33 0 00-.33.33v2.829a.33.33 0 00.33.329h2.827a.33.33 0 00.33-.329v-2.829a.331.331 0 00-.33-.33zm0 4.82h-2.827a.33.33 0 00-.33.33v2.828a.33.33 0 00.33.33h2.827a.33.33 0 00.33-.33v-2.828a.332.332 0 00-.33-.33z" fill="#fff"/>
  <path d="M72.063 37.333h-2.827a.33.33 0 00-.33.33v2.828a.33.33 0 00.33.33h2.827a.33.33 0 00.33-.33v-2.828a.332.332 0 00-.33-.33z" fill="#E6E6E6"/>
  <path d="M72.063 42.154h-2.827a.329.329 0 00-.33.33v2.828a.33.33 0 00.33.33h2.827a.33.33 0 00.33-.33v-2.828a.33.33 0 00-.33-.33z" fill="#2E8C8D"/>
  <path d="M78.002 22.871h-2.828a.33.33 0 00-.33.33v2.83a.329.329 0 00.33.328h2.828a.33.33 0 00.33-.329v-2.829a.331.331 0 00-.33-.33zm0 4.821h-2.828a.33.33 0 00-.33.33v2.829a.33.33 0 00.33.329h2.828a.33.33 0 00.33-.329v-2.829a.332.332 0 00-.33-.33zm0 4.82h-2.828a.33.33 0 00-.33.33v2.828a.329.329 0 00.33.33h2.828a.33.33 0 00.33-.33v-2.828a.332.332 0 00-.33-.33z" fill="#fff"/>
  <path d="M78.002 37.333h-2.828a.33.33 0 00-.33.33v2.828a.329.329 0 00.33.33h2.828a.33.33 0 00.33-.33v-2.828a.332.332 0 00-.33-.33z" fill="#2E8C8D"/>
  <path d="M78.002 42.154h-2.828a.329.329 0 00-.33.33v2.828a.329.329 0 00.33.33h2.828a.33.33 0 00.33-.33v-2.828a.33.33 0 00-.33-.33z" fill="#E6E6E6"/>
  <path d="M83.941 22.871h-2.828a.33.33 0 00-.33.33v2.83a.329.329 0 00.33.328h2.828a.33.33 0 00.33-.329v-2.829a.33.33 0 00-.33-.33zm0 4.821h-2.828a.33.33 0 00-.33.33v2.829a.33.33 0 00.33.329h2.828a.33.33 0 00.33-.329v-2.829a.33.33 0 00-.33-.33z" fill="#fff"/>
  <path d="M83.941 32.512h-2.828a.33.33 0 00-.33.33v2.828a.329.329 0 00.33.33h2.828a.33.33 0 00.33-.33v-2.828a.331.331 0 00-.33-.33z" fill="#2E8C8D"/>
  <path d="M83.941 37.333h-2.828a.33.33 0 00-.33.33v2.828a.329.329 0 00.33.33h2.828a.33.33 0 00.33-.33v-2.828a.331.331 0 00-.33-.33z" fill="#E6E6E6"/>
  <path d="M83.941 42.154h-2.828a.33.33 0 00-.33.33v2.828a.329.329 0 00.33.33h2.828a.33.33 0 00.33-.33v-2.828a.33.33 0 00-.33-.33z" fill="#fff"/>
  <path d="M89.88 22.871h-2.828a.33.33 0 00-.329.33v2.83a.33.33 0 00.33.328h2.828a.33.33 0 00.33-.329v-2.829a.332.332 0 00-.33-.33zm0 4.821h-2.828a.33.33 0 00-.329.33v2.829a.33.33 0 00.33.329h2.828a.33.33 0 00.33-.329v-2.829a.332.332 0 00-.33-.33z" fill="#2E8C8D"/>
  <path d="M89.88 32.512h-2.828a.33.33 0 00-.329.33v2.828a.329.329 0 00.33.33h2.828a.33.33 0 00.33-.33v-2.828a.332.332 0 00-.33-.33z" fill="#E6E6E6"/>
  <path d="M89.88 37.333h-2.828a.33.33 0 00-.329.33v2.828a.329.329 0 00.33.33h2.828a.33.33 0 00.33-.33v-2.828a.332.332 0 00-.33-.33z" fill="#fff"/>
  <path d="M89.88 42.154h-2.828a.329.329 0 00-.329.33v2.828a.329.329 0 00.33.33h2.828a.33.33 0 00.33-.33v-2.828a.33.33 0 00-.33-.33zm5.94-19.283h-2.83a.33.33 0 00-.329.33v2.83a.329.329 0 00.33.328h2.828a.33.33 0 00.33-.329v-2.829a.33.33 0 00-.33-.33zm0 4.821h-2.83a.33.33 0 00-.329.33v2.829a.33.33 0 00.33.329h2.828a.33.33 0 00.33-.329v-2.829a.33.33 0 00-.33-.33z" fill="#2E8C8D"/>
  <path d="M95.82 32.512h-2.83a.33.33 0 00-.329.33v2.828a.329.329 0 00.33.33h2.828a.33.33 0 00.33-.33v-2.828a.331.331 0 00-.33-.33z" fill="#E6E6E6"/>
  <path d="M95.82 37.333h-2.83a.33.33 0 00-.329.33v2.828a.329.329 0 00.33.33h2.828a.33.33 0 00.33-.33v-2.828a.331.331 0 00-.33-.33zm0 4.821h-2.83a.33.33 0 00-.329.33v2.828a.329.329 0 00.33.33h2.828a.33.33 0 00.33-.33v-2.828a.33.33 0 00-.33-.33z" fill="#2E8C8D"/>
  <path d="M101.759 22.871H98.93a.33.33 0 00-.329.33v2.83a.33.33 0 00.329.328h2.829a.33.33 0 00.33-.329v-2.829a.33.33 0 00-.33-.33z" fill="#E6E6E6"/>
  <path d="M101.759 27.692H98.93a.33.33 0 00-.329.33v2.829a.33.33 0 00.329.329h2.829a.33.33 0 00.33-.329v-2.829a.33.33 0 00-.33-.33zm0 4.82H98.93a.33.33 0 00-.329.33v2.828a.33.33 0 00.329.33h2.829a.33.33 0 00.33-.33v-2.828a.33.33 0 00-.33-.33zm0 4.821H98.93a.33.33 0 00-.329.33v2.828a.33.33 0 00.329.33h2.829a.33.33 0 00.33-.33v-2.828a.33.33 0 00-.33-.33z" fill="#2E8C8D"/>
  <path d="M101.759 42.154H98.93a.329.329 0 00-.329.33v2.828a.33.33 0 00.329.33h2.829a.33.33 0 00.33-.33v-2.828a.33.33 0 00-.33-.33zm5.939-19.283h-2.829a.332.332 0 00-.329.33v2.83a.33.33 0 00.329.329h2.829a.33.33 0 00.33-.33v-2.829a.33.33 0 00-.33-.33zm0 4.821h-2.829a.332.332 0 00-.329.33v2.829a.33.33 0 00.329.329h2.829a.33.33 0 00.33-.329v-2.829a.33.33 0 00-.33-.33z" fill="#E6E6E6"/>
  <path d="M107.698 32.512h-2.829a.332.332 0 00-.329.33v2.828a.322.322 0 00.096.233.334.334 0 00.233.097h2.829a.33.33 0 00.33-.33v-2.828a.33.33 0 00-.33-.33z" fill="#2E8C8D"/>
  <path d="M107.698 37.333h-2.829a.332.332 0 00-.329.33v2.828c0 .043.008.086.025.126a.335.335 0 00.304.204h2.829a.33.33 0 00.33-.33v-2.828a.33.33 0 00-.33-.33zm0 4.821h-2.829a.33.33 0 00-.329.33v2.828a.322.322 0 00.096.233.334.334 0 00.233.097h2.829a.33.33 0 00.33-.33v-2.828a.33.33 0 00-.33-.33z" fill="#E6E6E6"/>
  <path d="M42.688 83.844h-.08l.068-.009.012.009z" fill="#2F2E41"/>
  <path d="M35.92 31.128a8.678 8.678 0 008.678-8.678 8.678 8.678 0 10-17.355 0 8.678 8.678 0 008.678 8.678z" fill="#FFB6B6"/>
  <path d="M43.52 16.087s2.27-4.34-2.724-4.734c0 0-4.257-3.862-8.595-.706 0 0-2.367 0-3.661 2.678 0 0-1.862-.706-2.27 1.184 0 0-1.363 3.944 0 7.495 1.361 3.55 1.814 3.945 1.814 3.945s-2.238-7.444 3.21-7.838c5.447-.395 11.543-3.8 11.997.54.454 4.339 1.137 5.408 1.137 5.408s4.312-6.197-.908-7.973z" fill="#2F2E41"/>
  <path d="M58.368 43.838l-.028.147-.314 1.657-2.168 11.457-.128.675-.27 1.426-.368 1.946-.817 4.313-.233 1.236-.088.464-.03.162-.243 1.28-.074.386-.591 4.386-.517 3.822 1.73 1.73-1.032 1.032-.677 3.878.001.009H24.893a96.335 96.335 0 01-3.305-2.24l.227-1.702s.783-3.04.454-3.403c-.328-.364-1.047-1.013-1.047-1.013l.906-2.113.125-.294-.21-4.373-.005-.106-.07-1.441-.01-.186-.013-.278-.268-5.549-.005-.091-.082-1.682-.076-1.6-.033-.674-.326-6.749-.221-4.583-.193-3.99.776-.263 8.3-2.82 3.438-4.47 7.156.053 3.503.026 5.845 5.422 1.33.635.01.005.954.456 2.418 1.155 2.557 1.222 1.312.626.028.014z" fill="#CACACA"/>
  <path d="M34.18 70.824a3.846 3.846 0 01-5.165-2.85l-13.534-1.92 4.705-5.323 12.13 2.64a3.868 3.868 0 011.864 7.453z" fill="#FFB6B6"/>
  <path d="M28.145 61.147a1.718 1.718 0 00-1.002-.619l-5.553-1.155-.57-.118a2.405 2.405 0 01-1.591-1.152 2.435 2.435 0 01-.311-1.003 2.4 2.4 0 01.113-.95l1.924-5.8 1.248-3.762c.152-.453.241-.926.266-1.403a5.507 5.507 0 00-1.152-3.67 5.422 5.422 0 00-6.322-1.696 5.409 5.409 0 00-3.214 3.609l-1.357 4.935-2.798 10.173a7.339 7.339 0 006.219 9.233l7.998.937 3.7.434a1.715 1.715 0 001.9-1.432l.088-.55.754-4.62.007-.047a1.713 1.713 0 00-.347-1.344z" fill="#CACACA"/>
  <path d="M42.8 70.972a3.846 3.846 0 004.712-3.55l13.128-3.81-5.408-4.605-11.638 4.324a3.867 3.867 0 00-.793 7.64z" fill="#FFB6B6"/>
  <path d="M67.158 55.09l-6.244-14.372a5.439 5.439 0 00-3.868-3.159 5.35 5.35 0 00-2.474.046 5.436 5.436 0 00-3.483 2.778 5.474 5.474 0 00-.047 4.935l.077.155 4.413 8.863a2.402 2.402 0 01-1.334 3.326l-.31.112-5.573 2.013a1.714 1.714 0 00-1.058 2.133l.014.045 1.562 5a1.4 1.4 0 00.024.068 1.713 1.713 0 002.059 1.082l3.008-.794.613-.162 7.767-2.052a7.336 7.336 0 004.854-10.017z" fill="#CACACA"/>
  <path d="M5.703 67.159a65.295 65.295 0 005.81 6.214H68.92a2.09 2.09 0 012.085 2.087l.083 14.548a45.14 45.14 0 0013.76-9.799 45.175 45.175 0 008.741-13.05H5.703z" fill="#3F3D56"/>
  <path d="M84.847 80.21a41.3 41.3 0 01-1.499 1.49h-12.22v-1.49h13.719z" fill="#fff"/>
  <path d="M58.254 32.512a.703.703 0 00-.619-.368h-41.64a.706.706 0 00-.703.705v24.925H58.34V32.85a.685.685 0 00-.087-.337z" fill="#3F3D56"/>
  <path d="M15.254 57.1v3.075a.971.971 0 00.971.97h15.889v6.071h-.211a.125.125 0 00-.117.078.127.127 0 00-.01.048v.422a.127.127 0 00.079.117c.015.006.031.01.048.01h9.863a.125.125 0 00.117-.078.125.125 0 00.01-.049v-.422a.125.125 0 00-.078-.116.125.125 0 00-.049-.01h-.21v-6.07h15.888a.97.97 0 00.97-.971v-3.076h-43.16z" fill="#3F3D56"/>
  <path d="M36.313 48.271a3.977 3.977 0 100-7.953 3.977 3.977 0 000 7.953zm10.131-26.295h-.635c0-4.802-4.752-7.948-9.545-7.951a10.468 10.468 0 00-2.077.202c-.77.154-1.568.338-2.353.578-3.096.949-5.966 2.783-5.966 7.17 0 .853.108 1.701.323 2.526l-.615.16a10.657 10.657 0 01-.343-2.685c0-3.834 1.574-6.467 4.292-8.037 1.428-.826 3.172-1.358 5.17-1.617a12.34 12.34 0 012.509-.077c5.512.397 9.24 4.624 9.24 9.73z" fill="#2E8C8D"/>
  <path d="M47.502 22.328l-.25-1.85a1.996 1.996 0 00-.636-1.214 2.01 2.01 0 00-1.682-.508l-.398.054a.83.83 0 00-.696.614.832.832 0 00-.02.326l.578 4.26a.835.835 0 00.94.716l.444-.06a2.005 2.005 0 001.462-.965c.238-.416.329-.9.258-1.373z" fill="#2E8C8D"/>
  <path d="M44.28 18.888a.833.833 0 00-.46.863l.578 4.26a.836.836 0 00.673.707l-.791-5.83z" fill="#fff"/>
  <path d="M47.502 22.328l-.25-1.85a1.996 1.996 0 00-.635-1.214l.575 4.239a.785.785 0 00.052.198c.238-.416.329-.9.258-1.373zm-1.978 1.332c.174-.024.261-.437.195-.924-.066-.486-.26-.862-.434-.838-.173.023-.26.437-.195.924.066.486.26.861.434.838zm-.38-2.287c.173-.023.26-.437.195-.924-.066-.486-.26-.862-.434-.838-.174.024-.262.437-.196.924.066.486.26.862.434.838z" fill="#3F3D56"/>
  <path d="M47.557 22.262c.173-.023.26-.437.195-.923-.066-.487-.26-.862-.434-.839-.174.024-.262.438-.196.924.066.487.26.862.435.838zm-11.293-8.237a10.46 10.46 0 00-2.077.202c-.77.154-1.568.338-2.353.578-1.226-.06-2.128-.377-2.31-.866 1.43-.826 3.174-1.358 5.172-1.617a12.34 12.34 0 012.508-.077.728.728 0 01.346.486c.06.442-.445.912-1.286 1.294z" fill="#3F3D56"/>
  <path d="M28.155 26.383l-.978-4.066a.765.765 0 00-.924-.566l-.379.091a1.892 1.892 0 00-1.396 2.282l.439 1.824c.1.429.338.814.678 1.095a1.88 1.88 0 001.617.357l.377-.092a.761.761 0 00.567-.925z" fill="#2E8C8D"/>
  <path d="M26.105 25.627c.17-.041.216-.461.1-.939-.114-.477-.345-.831-.516-.79-.17.04-.215.461-.1.939.114.477.346.83.516.79zm-1.27.381c.17-.041.216-.462.1-.94-.114-.477-.345-.83-.516-.79-.17.042-.216.462-.1.94.114.477.346.83.516.79z" fill="#3F3D56"/>
  <path d="M28.218 26.368l-.978-4.066a.83.83 0 00-.672-.625l1.335 5.553a.827.827 0 00.315-.862z" fill="#fff"/>
  <path d="M24.7 23.318a.821.821 0 00-.15-.311 1.872 1.872 0 00-.072 1.116l.439 1.825c.1.429.338.814.678 1.095l-.896-3.725z" fill="#3F3D56"/>
</svg>
