<svg xmlns="http://www.w3.org/2000/svg" fill="none" viewBox="0 0 144 110">
  <g clip-path="url(#uJq5AOWDpa)">
    <path d="M46.335 17.117h-.294V32.77h.294V17.117zm0 20.313h-.294v13.774h.294V37.43zm22.03 15.968H45.6v.293h22.764v-.293zm-32.163 3.95h-.294v12.435h.294V57.348zm36.862 14.63H38.551v.293h34.513v-.293zm28.786-64.81h-.294v14.777h.294V7.168zm-2.497 17.117H77.759v.293h21.594v-.293zM75.56 26.626h-.293v19.75h.294v-19.75z" fill="#3F3D56"/>
    <path d="M46.188 37.598a2.503 2.503 0 01-2.306-1.535 2.477 2.477 0 01.54-2.71 2.5 2.5 0 012.722-.54c.456.189.846.507 1.12.916a2.48 2.48 0 01-.311 3.14 2.504 2.504 0 01-1.765.73zm0-4.681a2.209 2.209 0 00-2.035 1.354 2.187 2.187 0 00.477 2.392 2.206 2.206 0 003.761-1.552c0-.582-.233-1.14-.646-1.55a2.21 2.21 0 00-1.557-.644zm-9.987 41.694a2.49 2.49 0 01-2.449-2.972 2.5 2.5 0 013.404-1.813c.457.189.847.508 1.121.917a2.48 2.48 0 01-.311 3.14 2.505 2.505 0 01-1.765.728zm0-4.681a2.21 2.21 0 00-2.035 1.354 2.186 2.186 0 00.478 2.392 2.205 2.205 0 002.4.476 2.201 2.201 0 001.36-2.028c0-.582-.233-1.14-.646-1.55a2.21 2.21 0 00-1.557-.644z" fill="#3F3D56"/>
    <path d="M46.335 55.886a2.345 2.345 0 002.35-2.341 2.345 2.345 0 00-2.35-2.34 2.345 2.345 0 00-2.35 2.34 2.345 2.345 0 002.35 2.34z" fill="#2E8C8D"/>
    <path d="M131.37 34.965h-24.38v.292h24.38v-.292zm-26.583 2.465h-.293v13.774h.293V37.43zm-2.644 15.968H82.61v.293h19.533v-.293zm35.101 1.317h-20.267v.292h20.267v-.292zm-22.323 2.633h-.294v12.435h.294V57.348zm-2.644 14.63H77.764v.293h34.513v-.293zM75.561 60.713h-.293v9.07h.293v-9.07z" fill="#3F3D56"/>
    <path d="M104.64 37.452a2.345 2.345 0 002.35-2.34 2.345 2.345 0 00-2.35-2.342 2.345 2.345 0 00-2.349 2.341 2.345 2.345 0 002.349 2.341z" fill="#2E8C8D"/>
    <path d="M101.703 26.772a2.501 2.501 0 01-2.307-1.535 2.478 2.478 0 01.541-2.71 2.497 2.497 0 012.721-.54 2.482 2.482 0 01.809 4.055 2.503 2.503 0 01-1.764.73zm0-4.682a2.207 2.207 0 00-2.035 1.355 2.186 2.186 0 00.477 2.392 2.207 2.207 0 003.389-.333 2.182 2.182 0 00-.274-2.77 2.21 2.21 0 00-1.557-.644zm-26.289 4.682a2.503 2.503 0 01-2.306-1.535 2.478 2.478 0 01.54-2.71 2.5 2.5 0 014.263 1.758c0 .66-.264 1.291-.732 1.758a2.505 2.505 0 01-1.765.729zm0-4.682a2.209 2.209 0 00-2.035 1.355 2.187 2.187 0 00.477 2.392 2.205 2.205 0 003.761-1.552c0-.582-.233-1.14-.646-1.551a2.21 2.21 0 00-1.557-.644zm39.213 35.405a2.504 2.504 0 01-2.307-1.536 2.48 2.48 0 01.542-2.71 2.5 2.5 0 012.721-.54 2.493 2.493 0 011.541 2.299 2.486 2.486 0 01-.732 1.757 2.505 2.505 0 01-1.765.73zm0-4.682a2.208 2.208 0 00-2.035 1.355 2.185 2.185 0 00.477 2.391 2.206 2.206 0 002.401.476 2.2 2.2 0 001.36-2.027 2.194 2.194 0 00-.646-1.551 2.21 2.21 0 00-1.557-.644z" fill="#3F3D56"/>
    <path d="M114.627 74.465a2.345 2.345 0 002.35-2.34 2.345 2.345 0 00-2.35-2.341 2.345 2.345 0 00-2.35 2.34 2.345 2.345 0 002.35 2.341z" fill="#2E8C8D"/>
    <path d="M75.414 74.611a2.49 2.49 0 01-2.449-2.972 2.485 2.485 0 011.962-1.954 2.506 2.506 0 012.563 1.058 2.48 2.48 0 01-.311 3.14 2.505 2.505 0 01-1.765.728zm0-4.681a2.21 2.21 0 00-2.035 1.354 2.187 2.187 0 00.477 2.392 2.205 2.205 0 002.401.476 2.201 2.201 0 001.36-2.028c0-.582-.233-1.14-.646-1.55a2.21 2.21 0 00-1.557-.644zm29.079-13.898a2.492 2.492 0 01-2.306-1.535 2.482 2.482 0 01.541-2.71 2.499 2.499 0 012.721-.54 2.493 2.493 0 011.541 2.298 2.486 2.486 0 01-.732 1.758 2.505 2.505 0 01-1.765.729zm0-4.682a2.2 2.2 0 00-2.035 1.355 2.184 2.184 0 00.478 2.391 2.203 2.203 0 002.4.476 2.2 2.2 0 001.36-2.027 2.19 2.19 0 00-.646-1.551 2.21 2.21 0 00-1.557-.644zm-68.292-1.316c-.581 0-1.149.171-1.632.493a2.915 2.915 0 00-.445 4.502 2.941 2.941 0 003.201.634 2.934 2.934 0 001.318-1.078 2.918 2.918 0 00.495-1.625 2.929 2.929 0 00-.863-2.067 2.952 2.952 0 00-2.074-.86zm0 .877a.884.884 0 01.814.542.875.875 0 01-.642 1.197.884.884 0 01-.905-.373.875.875 0 01.733-1.366zm0 4.226a2.146 2.146 0 01-1.762-.937c.014-.585 1.175-.907 1.762-.907s1.748.322 1.762.907a2.14 2.14 0 01-1.762.937zm10.134-45.042a2.94 2.94 0 00-1.632.493 2.916 2.916 0 00-.445 4.502 2.94 2.94 0 003.2.634 2.935 2.935 0 001.319-1.078 2.917 2.917 0 00.495-1.625 2.929 2.929 0 00-.863-2.067 2.952 2.952 0 00-2.074-.86zm0 .877a.884.884 0 01.814.542.874.874 0 01-.642 1.197.885.885 0 01-.905-.373.875.875 0 01.11-1.107.886.886 0 01.623-.258zm0 4.226a2.145 2.145 0 01-1.763-.937c.014-.585 1.175-.907 1.763-.907.587 0 1.748.322 1.762.907a2.14 2.14 0 01-1.762.937zM101.703 0a2.95 2.95 0 00-1.632.493 2.915 2.915 0 00-.445 4.502 2.942 2.942 0 004.519-.444 2.916 2.916 0 00.495-1.625 2.925 2.925 0 00-.863-2.067A2.95 2.95 0 00101.703 0zm0 .878a.88.88 0 01.864 1.049.878.878 0 01-1.201.64.883.883 0 01-.544-.811.88.88 0 01.881-.878zm0 4.226a2.148 2.148 0 01-1.762-.937c.014-.586 1.174-.908 1.762-.908.587 0 1.748.322 1.762.908a2.139 2.139 0 01-1.762.937zm33.779 26.936a2.94 2.94 0 00-1.632.492 2.927 2.927 0 00-1.249 3.004 2.92 2.92 0 00.804 1.498 2.941 2.941 0 003.201.634 2.934 2.934 0 001.318-1.077 2.916 2.916 0 00.495-1.626 2.925 2.925 0 00-.863-2.066 2.95 2.95 0 00-2.074-.86zm0 .877a.882.882 0 01.864 1.049.879.879 0 01-1.201.64.883.883 0 01-.544-.811.884.884 0 01.881-.878zm0 4.226a2.149 2.149 0 01-1.763-.937c.014-.586 1.175-.908 1.763-.908.587 0 1.748.322 1.762.908a2.139 2.139 0 01-1.762.937zm5.581 14.647a2.94 2.94 0 00-1.632.492 2.927 2.927 0 00-1.249 3.004 2.92 2.92 0 00.804 1.498 2.94 2.94 0 003.201.634 2.934 2.934 0 001.318-1.077 2.916 2.916 0 00.495-1.626 2.925 2.925 0 00-.863-2.066 2.95 2.95 0 00-2.074-.86zm0 .877a.882.882 0 01.864 1.049.878.878 0 01-1.201.64.883.883 0 01-.544-.811.884.884 0 01.881-.878zm0 4.226a2.149 2.149 0 01-1.763-.937c.015-.586 1.175-.908 1.763-.908.587 0 1.748.322 1.762.908a2.139 2.139 0 01-1.762.937z" fill="#3F3D56"/>
    <path d="M76.962 48.163a5.527 5.527 0 00-3.193.16 5.505 5.505 0 00-2.565 1.9 5.472 5.472 0 002.077 8.223 5.526 5.526 0 006.051-.9 5.482 5.482 0 001.744-4.871 5.471 5.471 0 00-2.17-3.6 5.516 5.516 0 00-1.944-.912z" fill="#2E8C8D"/>
    <path d="M22.323 107.279c-.418 3.785-22.356 3.467-22.323-.001.418-3.785 22.357-3.467 22.323.001z" fill="#E6E6E6"/>
    <path d="M15.238 97.75l.89 1.919 1.63-.148 1.037-3.396-1.63-.886-1.927 2.51zm-5.598 4.42l-.035 1.338 2.52.147v-1.624l-2.484.139z" fill="#FFB8B8"/>
    <path d="M10.495 77.817l.593 11.812-1.483 12.845 4.447.591 2.816-16.242.89-11.073-7.263 2.067z" fill="#2F2E41"/>
    <path d="M3.528 73.535S1.75 85.199 5.455 89.038c3.706 3.839 8.745 10.63 8.745 10.63l3.558-4.429-9.042-9.597 1.779-6.497 7.263-3.396-1.186-8.12L5.9 67.48l-2.372 6.054z" fill="#2F2E41"/>
    <path d="M12.274 46.515c1.8 0 3.26-1.454 3.26-3.248a3.255 3.255 0 00-3.26-3.248 3.255 3.255 0 00-3.261 3.248 3.255 3.255 0 003.26 3.248z" fill="#FFB8B8"/>
    <path d="M9.457 44.005s-.148 4.577-.89 5.168c-.74.59 2.669 3.1 2.669 3.1l2.223-3.543v-3.25l-4.002-1.476z" fill="#FFB8B8"/>
    <path d="M10.94 50.206L9.14 47.5l-1.017 1.378-1.482 4.135 1.186 16.093 6.966.148.89-18.456-2.224-2.658-2.52 2.067z" fill="#D0CDE1"/>
    <path d="M18.499 51.24l1.186-.148s.296.147.444 1.181c.148 1.033 1.927 10.188 1.927 10.188l-2.371 11.221-2.668-3.543 1.63-6.202-1.63-6.201 1.482-6.497zM3.38 51.092h-.89L.269 63.052l2.075 9.301 2.075-3.396-.593-3.69.296-3.249 1.038-1.92-1.779-9.006zm13.192 47.986s-.89-.296-.89.295c0 .59.594 2.363.594 2.363s-.89 5.463.444 5.167c1.334-.295 2.372-2.805 2.52-3.543.148-.739.89-4.578.89-4.578s1.185-2.805.444-2.952c-.741-.148-2.816-.739-2.816-.739s1.186 3.692-1.186 3.987zm-4.299 4.577s-2.371-1.476-2.816-.295a12.359 12.359 0 00-.593 2.658s-.593 1.919 1.779 1.624c2.371-.296 2.075-.296 2.223-1.182.149-.885-.593-2.805-.593-2.805zm-1.926-60.389l.592-.148s.445-2.51 1.483-2.214c1.037.295 3.705.59 3.705-.59 0-1.182-2.52-2.216-4.002-2.068-1.482.148-4.002.59-3.854 2.805.149 2.215 1.105 4.37 1.105 4.37l.077-1.313.894-.842z" fill="#2F2E41"/>
    <path d="M13.46 51.978l-2.52-1.772 2.52-2.067.874 1.046-.875 2.793zm-4.744-.148l2.223-1.624-1.778-2.658-1.038 1.33.593 2.952z" fill="#D0CDE1"/>
    <path d="M19.537 51.092l-4.744-1.92-1.111-.812-3.335 14.691-2.224-6.644.667-8.49-6.15 3.175 2.074 10.04.297 3.839-.89 3.1S1.01 70.287 2.046 72.65c1.038 2.362 2.224 2.51 2.224 2.51s5.04-4.725 5.336-5.906c.296-1.181.74-3.249.74-3.249s2.52 9.45 5.485 9.302c2.964-.147 2.964-3.248 2.964-3.248l-.74-3.248-1.186-3.396.592-5.61 2.076-8.712z" fill="#2F2E41"/>
  </g>
  <defs>
    <clipPath id="uJq5AOWDpa">
      <path fill="#fff" d="M0 0h144v110H0z"/>
    </clipPath>
  </defs>
</svg>
