<svg xmlns="http://www.w3.org/2000/svg" fill="none" viewBox="0 0 54 16">
  <path d="M8.343 0c4.247 0 7.769 3.524 7.769 7.769 0 4.337-3.524 7.768-7.769 7.768-4.337 0-7.768-3.433-7.768-7.768C.575 3.522 4.008 0 8.343 0zm0 1.445c-3.524 0-6.323 2.89-6.323 6.324a6.285 6.285 0 006.323 6.323c3.433 0 6.324-2.801 6.324-6.323 0-3.433-2.89-6.324-6.324-6.324zM26.955 0c4.337 0 7.768 3.524 7.768 7.769 0 4.337-3.433 7.768-7.768 7.768-4.247 0-7.769-3.433-7.769-7.768C19.186 3.522 22.71 0 26.955 0zm0 1.445c-3.434 0-6.233 2.89-6.233 6.324 0 3.524 2.801 6.323 6.233 6.323a6.285 6.285 0 006.323-6.323c0-3.433-2.801-6.324-6.323-6.324zM45.657 0c4.247 0 7.769 3.524 7.769 7.769 0 4.337-3.525 7.768-7.769 7.768-4.337 0-7.769-3.433-7.769-7.768C37.888 3.522 41.322 0 45.657 0zm0 1.445c-3.524 0-6.324 2.89-6.324 6.324a6.285 6.285 0 006.324 6.323c3.433 0 6.233-2.801 6.233-6.323 0-3.433-2.802-6.324-6.233-6.324z" fill="#2E8C8D"/>
</svg>
