<svg xmlns="http://www.w3.org/2000/svg" fill="none" viewBox="0 0 66 44">
  <path d="M4.379 33.156c-.31 0-.619.013-.921.039l-.044.004C1.408 33.376-.06 34.404.002 35.59l.011.214c.008.136.016.282.023.444.004.08.113.14.248.14h49.328c3.477-.02 6.943-.047 10.298-.078.63.001 1.259-.032 1.885-.098.932-.11 1.58-.33 1.979-.669.496-.421.512-.951.482-1.55-.061-1.211-.122-2.482-.183-3.75-.053-1.117-.106-2.231-.16-3.298-.032-.633-.105-1.191-.67-1.618-.61-.462-1.724-.696-3.311-.696h-.058c-4.972.018-9.9 1.727-12.26 4.255a17.27 17.27 0 00-.77.903c-.362.445-.736.906-1.183 1.317a5.563 5.563 0 01-2.004 1.2l-.035.013-.083.027c-.2.064-.408.12-.616.164-.9.199-1.923.246-3.04.142a14.69 14.69 0 01-3.024-.617c-1.036-.327-2.005-.735-2.942-1.13-.411-.172-.837-.352-1.262-.521l-.239-.095a22.13 22.13 0 00-1.439-.51 14.203 14.203 0 00-3.43-.636c-1.237-.068-2.327.06-3.239.378a5.57 5.57 0 00-.732.316c-1.08.56-1.746 1.389-2.39 2.19-.8.995-1.63 2.025-3.264 2.559-1.888.616-4.642.36-6.591-.085-.613-.14-1.225-.302-1.817-.457l-.717-.188a34.7 34.7 0 00-1.212-.293l-.113-.025a18.247 18.247 0 00-1.394-.254l-.092-.013a16.96 16.96 0 00-.524-.062l-.068-.007a11.28 11.28 0 00-1.015-.047z" fill="#F2F2F2"/>
  <path d="M55.386 34.48c1.388-1.25 3.453-1.879 5.184-1.177a8.609 8.609 0 00-3.868 4.468c-.276.733-.506 1.578-1.184 1.97-.422.245-.947.257-1.42.139s-.907-.354-1.335-.589l-.121-.002c.546-1.787 1.356-3.557 2.744-4.808z" fill="#E6E6E6"/>
  <path d="M60.56 33.34a7.358 7.358 0 00-4.093 1.934 3.164 3.164 0 00-.622.773 1.818 1.818 0 00-.21.934c.007.302.05.61-.016.91a1.114 1.114 0 01-.554.722c-.339.195-.727.256-1.11.303-.424.052-.865.1-1.233.338-.044.028-.086-.042-.042-.071.64-.414 1.448-.264 2.135-.54.32-.129.604-.355.705-.698.088-.299.044-.617.034-.923-.02-.317.04-.632.171-.92.15-.297.35-.566.59-.795a7.138 7.138 0 011.814-1.299 7.491 7.491 0 012.43-.75c.053-.007.054.076.002.083z" fill="#fff"/>
  <path d="M56.81 34.911a1.104 1.104 0 01.122-1.424c.037-.037.097.02.06.057a1.022 1.022 0 00-.111 1.325c.03.043-.04.085-.071.042zm-1.2 1.916a2.128 2.128 0 001.521-.304c.045-.029.087.042.042.07-.469.3-1.034.412-1.582.314-.053-.01-.032-.09.02-.08zm3.288-3.097a.624.624 0 00.467.365c.052.01.032.089-.02.08a.7.7 0 01-.518-.402.043.043 0 01.014-.057.042.042 0 01.057.014z" fill="#fff"/>
  <path d="M62.477 39.334a8.23 8.23 0 00-1.536-.078 8.674 8.674 0 00-3.112.717c-.392.171-.77.372-1.13.6-.5.316-1.015.698-1.572.827a1.46 1.46 0 01-.176.031l-2.303-1.994-.01-.02-.095-.076.054-.04.032-.022.02-.015.006-.004.018-.013c.105-.074.21-.148.316-.22l.001-.001a12.387 12.387 0 012.58-1.387l.083-.03a7.479 7.479 0 011.975-.456 5.91 5.91 0 011.844.131c1.203.28 2.304.94 2.956 1.971l.05.08z" fill="#E6E6E6"/>
  <path d="M62.447 39.359a7.358 7.358 0 00-4.433-.921 3.17 3.17 0 00-.962.243 1.81 1.81 0 00-.73.619c-.176.246-.328.518-.56.717a1.111 1.111 0 01-.877.243c-.388-.048-.736-.233-1.069-.426-.37-.214-.751-.442-1.188-.473-.053-.004-.044-.086.01-.082.759.054 1.314.661 2.029.854.334.09.696.08.983-.132.25-.186.407-.467.583-.718a1.94 1.94 0 01.69-.631c.299-.146.62-.24.95-.28a7.136 7.136 0 012.23.056c.841.15 1.65.442 2.393.865.046.026-.004.092-.05.066z" fill="#fff"/>
  <path d="M58.506 38.355a1.104 1.104 0 01.955-1.064c.052-.006.066.075.013.082a1.022 1.022 0 00-.886.991c-.001.053-.083.044-.082-.009zm-2.111.808c.365.392.864.632 1.397.673.053.004.044.085-.008.081a2.213 2.213 0 01-1.453-.702c-.036-.04.028-.09.064-.052zm4.489-.494a.625.625 0 00.154.573c.036.038-.028.09-.065.051a.7.7 0 01-.17-.633.043.043 0 01.045-.036c.01 0 .02.006.027.015.007.008.01.02.01.03z" fill="#fff"/>
  <path d="M19.052 35.725c1.136-1.724 3.17-2.971 5.216-2.703a9.514 9.514 0 00-2.894 5.855c-.09.862-.102 1.829-.718 2.438-.383.378-.941.537-1.48.543-.539.005-1.068-.127-1.591-.259l-.131.031c.087-2.063.461-4.181 1.598-5.905z" fill="#E6E6E6"/>
  <path d="M24.269 33.065a8.131 8.131 0 00-3.84 3.207 3.502 3.502 0 00-.45 1c-.084.35-.072.714.034 1.057.092.321.224.64.236.978a1.23 1.23 0 01-.39.926c-.309.303-.708.477-1.103.633-.44.174-.899.347-1.226.704-.04.043-.104-.02-.064-.064.568-.62 1.475-.684 2.133-1.171.307-.227.547-.548.56-.942.01-.345-.125-.673-.221-.998a2.144 2.144 0 01-.073-1.032 3.24 3.24 0 01.41-1.014 7.89 7.89 0 011.58-1.893 8.277 8.277 0 012.39-1.478c.054-.022.078.066.024.087z" fill="#fff"/>
  <path d="M20.695 35.79a1.22 1.22 0 01-.267-1.558c.03-.05.11-.006.08.044a1.13 1.13 0 00.25 1.448c.045.038-.019.102-.063.065zm-.75 2.382a2.352 2.352 0 001.541-.748c.04-.044.105.02.065.063a2.446 2.446 0 01-1.605.776c-.059.005-.06-.087-.001-.09zm2.653-4.227a.69.69 0 00.602.26c.058-.005.059.086 0 .091a.775.775 0 01-.665-.286.047.047 0 010-.064.046.046 0 01.063 0z" fill="#fff"/>
  <path d="M27.986 38.943a9.099 9.099 0 00-1.664.344 9.587 9.587 0 00-3.13 1.632 9.31 9.31 0 00-1.042.957c-.445.476-.89 1.028-1.45 1.32a1.601 1.601 0 01-.18.083l-3.018-1.492-.016-.02-.123-.054.047-.057.027-.033.018-.021a.15.15 0 01.006-.007l.015-.018a30.9 30.9 0 01.276-.324l.002-.001c.71-.816 1.496-1.58 2.373-2.2a8.888 8.888 0 011.333-.787c.239-.115.484-.217.734-.306a6.532 6.532 0 012.007-.373c1.365-.036 2.726.364 3.71 1.285l.075.072z" fill="#E6E6E6"/>
  <path d="M27.96 38.978a8.132 8.132 0 00-4.997.248 3.48 3.48 0 00-.961.528 2.008 2.008 0 00-.608.864c-.12.312-.207.646-.4.923a1.23 1.23 0 01-.87.505c-.43.056-.852-.046-1.262-.159-.456-.126-.927-.264-1.402-.175-.058.01-.071-.08-.014-.09.828-.154 1.59.341 2.409.349.382.003.767-.108 1.014-.416.216-.268.306-.612.424-.93.114-.33.308-.628.564-.867.278-.239.595-.43.938-.562a7.888 7.888 0 012.4-.562 8.275 8.275 0 012.8.26c.056.015.021.099-.035.084z" fill="#fff"/>
  <path d="M23.467 39a1.22 1.22 0 01.725-1.403c.054-.022.09.061.037.083a1.13 1.13 0 00-.672 1.307c.013.057-.077.07-.09.013zm-2.033 1.452a2.355 2.355 0 001.681.33c.058-.01.07.08.013.09a2.446 2.446 0 01-1.749-.347c-.05-.032.005-.105.055-.073zm4.663-1.777a.69.69 0 00.324.57c.05.03-.005.103-.055.073a.773.773 0 01-.359-.63.047.047 0 01.038-.052.046.046 0 01.052.039z" fill="#fff"/>
  <path d="M27.14 22.8a.729.729 0 00-.095-1.111l1.188-5.749-1.282.405-.956 5.561a.732.732 0 001.145.895z" fill="#FFB6B6"/>
  <path d="M29.886 7.434l-.794-.599s-.7-.05-.824 1.213c-.124 1.263-.9 6.11-.9 6.11l-1.215 5.626 1.68.37 1.302-6.072 1.302-4.189-.551-2.459z" fill="#E6E6E6"/>
  <path d="M29.281 17.845l-3.808-2.961a.284.284 0 01-.05-.398l2.591-3.332a.284.284 0 01.398-.05l3.808 2.96a.284.284 0 01.05.399l-2.591 3.332a.284.284 0 01-.398.05z" fill="#3F3D56"/>
  <path d="M29.26 17.538l-3.485-2.71a.252.252 0 01-.044-.353l2.349-3.02a.252.252 0 01.353-.045l3.485 2.71a.253.253 0 01.044.353l-2.349 3.02a.252.252 0 01-.353.045z" fill="#fff"/>
  <path d="M26.232 14.752a.063.063 0 01-.01-.089l1.184-1.524a.063.063 0 01.104.008.062.062 0 01.006.048.063.063 0 01-.01.022L26.32 14.74a.063.063 0 01-.088.01zm.197.153a.063.063 0 01-.011-.089l1.184-1.524a.063.063 0 01.1.077l-1.185 1.524a.063.063 0 01-.088.011zm.867-.711a.063.063 0 01-.01-.089l.513-.66a.063.063 0 01.066-.022.063.063 0 01.033.1l-.514.66a.063.063 0 01-.088.01zm.264 1.296a.063.063 0 01-.01-.088l1.87-2.406a.064.064 0 01.042-.024.061.061 0 01.047.013.064.064 0 01.023.042.063.063 0 01-.012.046l-1.87 2.406a.063.063 0 01-.09.01zm.197.153a.063.063 0 01-.01-.089l1.87-2.405a.064.064 0 01.041-.024.063.063 0 01.07.055.064.064 0 01-.012.046l-1.87 2.406a.063.063 0 01-.088.011zm.446.347a.063.063 0 01-.011-.088l1.87-2.407a.062.062 0 01.067-.022.064.064 0 01.038.03.062.062 0 01.006.048.064.064 0 01-.011.022l-1.87 2.405a.063.063 0 01-.089.011zm.197.152a.063.063 0 01-.012-.088l1.87-2.406a.064.064 0 01.09-.011.064.064 0 01.023.042.063.063 0 01-.013.046l-1.87 2.406a.063.063 0 01-.089.01zm.445.346a.063.063 0 01-.01-.088l1.87-2.405a.064.064 0 01.042-.024.063.063 0 01.068.079.06.06 0 01-.011.022l-1.87 2.405a.063.063 0 01-.088.011zm.196.153a.063.063 0 01-.01-.088l1.87-2.406a.064.064 0 01.088-.01.063.063 0 01.011.088l-1.87 2.405a.063.063 0 01-.088.011z" fill="#E4E4E4"/>
  <path d="M25.915 19.435a.026.026 0 100-.052.026.026 0 000 .052z" fill="#fff"/>
  <path d="M29.682 1.625c-.091.488-.24.964-.444 1.417-1.169 2.472 2.159 1.666 3.348 1.666 1.3 0 2.544.684 2.354-2.354C34.86 1.057 33.886 0 32.586 0c-1.11 0-2.672.494-2.904 1.625z" fill="#2F2E41"/>
  <path d="M33.798 37.88H32.69l-.527-4.274h1.635v4.273z" fill="#FFB6B6"/>
  <path d="M34.383 39.799h-.795l-.142-.75-.363.75h-2.107a.474.474 0 01-.269-.864l1.683-1.162v-.758l1.77.106.223 2.678z" fill="#2F2E41"/>
  <path d="M40.38 36.481l-.89.662-2.972-3.115 1.312-.975 2.55 3.428z" fill="#FFB6B6"/>
  <path d="M41.994 37.673l-.638.474-.561-.518.156.819-1.69 1.257a.473.473 0 01-.732-.532l.657-1.937-.453-.608 1.484-.971 1.777 2.016z" fill="#2F2E41"/>
  <path d="M30.17 18.215l5.258-.82-1.045-3.146H30.17v3.966z" fill="#FFB6B6"/>
  <path d="M35.088 15.834s2.102 1.816 1.132 6.993l-1.184 5.072 3.225 5.6-1.64.895-3.975-5.525-1.819-4.267-.962-7.478 5.223-1.29z" fill="#2F2E41"/>
  <path d="M31.83 25.818l-.127 1.958.37 5.797 1.838.633.348-5.94-2.43-2.448z" fill="#2F2E41"/>
  <path d="M31.265 5.36l2.033.08.81 1.344 1.848.36-1.103 5.583.203 3.177-1.84-.011a5.383 5.383 0 00-3.603 1.353l.055-4.124-.791-3.08.178-3.227 1.486-.186.724-1.27z" fill="#E6E6E6"/>
  <path d="M32.391 4.708a1.913 1.913 0 100-3.826 1.913 1.913 0 000 3.826z" fill="#FFB6B6"/>
  <path d="M31.092.845a2.191 2.191 0 013.332 1.912c-.975.245-2 .432-3.039.059l-.245-.601-.145.601c-.317.13-.634.24-.951-.001a2.238 2.238 0 011.048-1.97z" fill="#2F2E41"/>
  <path d="M35.602 19.761l.258 2.34a.286.286 0 00.273.202h1.189a.286.286 0 00.273-.201l.214-1.794a.434.434 0 10.112-.816.284.284 0 00-.217-.1h-1.829a.286.286 0 00-.273.37zm2.244.426l.13-.426a.283.283 0 00.005-.15c.006-.001.011-.003.017-.003a.31.31 0 010 .62.306.306 0 01-.152-.041z" fill="#2E8C8D"/>
  <path d="M37.395 22.305a.728.728 0 01.101-1.111l-1.159-5.754 1.28.41.927 5.566a.731.731 0 01-1.15.89z" fill="#FFB6B6"/>
  <path d="M35.162 7.744l.794-.6s.7-.049.824 1.214.901 6.11.901 6.11l1.215 5.626-1.682.369-1.3-6.072-1.303-4.188.551-2.459z" fill="#E6E6E6"/>
  <path d="M28.311 12.983a.45.45 0 100-.899.45.45 0 000 .899z" fill="#2E8C8D"/>
  <path d="M13.982 43.093h.937l.445-3.613h-1.382v3.613z" fill="#FFB6B6"/>
  <path d="M13.743 42.787h.264l1.029-.419.552.419a1.175 1.175 0 011.175 1.175V44h-3.02v-1.213z" fill="#2F2E41"/>
  <path d="M17.611 42.502l.914.206 1.23-3.425-1.348-.305-.796 3.524z" fill="#FFB6B6"/>
  <path d="M17.445 42.151l.258.058 1.096-.181.445.53a1.176 1.176 0 01.888 1.405l-.008.037-2.946-.665.267-1.184zm-5.177-17.638L13.114 34s-.317 5.696.707 7.7h1.485l.735-8.22.092-5.518 3.184 4.655-2.028 8.95 1.828.163 3.29-9.712-3.615-9.117-6.524 1.612z" fill="#2F2E41"/>
  <path d="M13.155 9.403a2.184 2.184 0 100-4.367 2.184 2.184 0 000 4.367z" fill="#FFB8B8"/>
  <path d="M16.994 11.485l-1.792-.769-.872-.925-2.179.351-.578.992-1.871 1.74 2.192 9.913-.066 2.166s1.403.631 7.489-.823c.073-.018-.08-.094-.08-.094l-2.243-12.551z" fill="#3F3D56"/>
  <path d="M10.884 8.459a5.532 5.532 0 01-.046-.063c-.006.013-.01.026-.017.038l.063.025zm4.443-2.837a1.394 1.394 0 00-.73-.704 1.33 1.33 0 00-.996 0c-.29-.182-.61-.326-.948-.344-.338-.018-.695.107-.903.383a1.51 1.51 0 01-.158.205c-.167.155-.421.133-.644.101l.3.257-.363.094.423.257c-.41.245-.595.781-.546 1.268.046.461.269.883.535 1.257.106-.224.083-.492.081-.744-.002-.266.046-.569.26-.718.143-.1.328-.105.502-.104.876.005 1.751.06 2.621.164a.738.738 0 01.336.097c.192.131.23.402.25.64.1-.393.15-.796.147-1.202.009-.31-.048-.62-.167-.907z" fill="#2F2E41"/>
  <path d="M16.007 31.163a3.437 3.437 0 100-6.874 3.437 3.437 0 000 6.874z" fill="#fff"/>
  <path d="M16.007 24.212a3.533 3.533 0 00-.79.09 3.513 3.513 0 10.79-.09zm0 6.875a3.341 3.341 0 01-2.168-.795 3.359 3.359 0 114.545-4.942 3.36 3.36 0 01-2.377 5.737z" fill="#3F3D56"/>
  <path d="M14.32 27.039h3.373c.123 0 .223-.1.223-.224v-.011c0-.124-.1-.224-.223-.224H14.32c-.124 0-.224.1-.224.224v.01c0 .124.1.225.224.225zm0 .916h3.373c.123 0 .223-.1.223-.224v-.01c0-.124-.1-.224-.223-.224H14.32c-.124 0-.224.1-.224.223v.011c0 .124.1.224.224.224zm0 .917h3.373c.123 0 .223-.1.223-.224v-.011c0-.124-.1-.224-.223-.224H14.32c-.124 0-.224.1-.224.224v.01c0 .124.1.225.224.225z" fill="#2E8C8D"/>
  <path d="M54.463 42.975h-.982l-.468-3.787h1.45v3.787zm-4.646 0h-.982l-.467-3.787h1.45v3.787z" fill="#9E616A"/>
  <path d="M49.852 44h-3.02v-.038a1.175 1.175 0 011.176-1.175l.551-.419 1.03.419h.263V44zm4.771 0h-3.02v-.038a1.175 1.175 0 011.176-1.175l.552-.419 1.029.419h.263V44zm-5.769-23.44l-1.492 9.087.406 1.354-.533.96.782 8.422-.317.7.887.547h1.806l.096-7.625.447-1.12v-.617l.908-4.65.167 6.512.264 1.121-.222.799.29.559.77 5.187h2.026l-.157-1.207a.891.891 0 00.468-.987l-.116-.529.264-1.564.482-8.724-.136-7.04-2.37-1.811-4.72.626z" fill="#2F2E41"/>
  <path d="M52.275 8.892a1.882 1.882 0 100-3.764 1.882 1.882 0 000 3.764zm-4.111 15.274a.805.805 0 00-.129-1.228l.732-2.767-1.41.474-.479 2.555a.81.81 0 001.286.966z" fill="#9E616A"/>
  <path d="M48.934 10.881l-.302-.063-.258.143s-.721.961-.721 1.842c0 .881-.881 9.371-.881 9.371l1.602.721 1.281-6.648-.72-5.366z" fill="#E6E6E6"/>
  <path d="M53.923 5.63s.492-.94-.59-1.026c0 0-.924-.837-1.864-.153 0 0-.514 0-.794.58 0 0-.404-.152-.492.257 0 0-.296.856 0 1.625.295.77.393.856.393.856s-.485-1.614.696-1.7c1.181-.085 2.503-.823 2.601.117.099.941.247 1.173.247 1.173s.935-1.344-.197-1.729z" fill="#2F2E41"/>
  <path d="M60.797 31.96a.576.576 0 01-.385-.147l-5.695-5.069a.58.58 0 01-.047-.819l3.648-4.098a.58.58 0 01.819-.047l5.694 5.069a.58.58 0 01.047.819l-3.647 4.098a.577.577 0 01-.434.194z" fill="#fff"/>
  <path d="M60.797 31.998a.613.613 0 01-.41-.157l-5.695-5.069a.618.618 0 01-.05-.871l3.648-4.098a.618.618 0 01.871-.05l5.695 5.068a.617.617 0 01.05.872l-3.648 4.098a.612.612 0 01-.462.207zM58.75 21.745a.465.465 0 00-.35.157L54.753 26a.469.469 0 00.039.661l5.694 5.069a.468.468 0 00.661-.038l3.648-4.099a.468.468 0 00-.038-.66l-5.695-5.07a.466.466 0 00-.311-.118z" fill="#3F3D56"/>
  <path d="M62.861 28.08a.25.25 0 01-.166-.064l-4.47-3.98a.25.25 0 11.334-.374l4.47 3.979a.25.25 0 01-.168.438zm-.852.957a.25.25 0 01-.167-.063l-4.47-3.98a.253.253 0 01-.07-.27.25.25 0 01.404-.104l4.47 3.979a.251.251 0 01-.167.438zm-.853.958a.25.25 0 01-.167-.064l-4.47-3.979a.25.25 0 01.153-.438.25.25 0 01.181.063l4.47 3.98a.251.251 0 01-.167.438z" fill="#2E8C8D"/>
  <path d="M56.044 24.33a.807.807 0 01.441-1.154l.005-2.862 1.24.82-.194 2.593a.81.81 0 01-1.492.602z" fill="#9E616A"/>
  <path d="M56.16 11.665l.553-.534.407.294s.4.48.721 1.922c.32 1.442 0 9.371 0 9.371l-1.762-.24.24-4.165-.72-3.524.56-3.124z" fill="#E6E6E6"/>
  <path d="M56.977 11.262l-1.866-.892-1.268-1.175-2.311-.018-.745.97-1.969.668.328 6.787-.223.522s.155.14.227.22c.07.078-.099.737-.099.737l-.095.717.265.19-.345.407-.085.642s6.017-1.496 7.154.982c.06.13-.088-1.149-.088-1.149l-.148-.937.147-.84.224-.224-.375-.375.24-1.78 1.032-5.452z" fill="#3F3D56"/>
  <path d="M14.643 26.307a.865.865 0 00-.634-1.164l-.415-3.045-1.202 1.05.578 2.731a.87.87 0 001.673.428z" fill="#FFB8B8"/>
  <path d="M9.932 12.818l-.326.062-.197.248s-.318 1.25.045 2.124c.363.873 2.987 9.654 2.987 9.654l1.886.055-1.469-7.12-2.926-5.023z" fill="#3F3D56"/>
  <path d="M17.365 25.86a.867.867 0 01.154-1.316l-.75-2.98 1.507.526.481 2.75a.87.87 0 01-1.392 1.02z" fill="#FFB8B8"/>
  <path d="M16.706 11.588l.326-.064.275.157s.762 1.04.75 1.987c-.01.946.828 10.072.828 10.072l-1.729.754-1.292-7.154.842-5.752z" fill="#3F3D56"/>
</svg>
