<svg xmlns="http://www.w3.org/2000/svg" fill="none" viewBox="0 0 63 44">
  <g clip-path="url(#9lOuavcxWa)">
    <path d="M60.068 8.56H2.932A2.93 2.93 0 01.86 7.695 2.95 2.95 0 010 5.616V2.943c0-.78.31-1.528.86-2.08A2.93 2.93 0 012.932 0h57.136a2.93 2.93 0 012.072.863c.55.551.86 1.3.86 2.08v2.674c0 .78-.31 1.528-.86 2.08a2.93 2.93 0 01-2.072.862zM2.932.177a2.76 2.76 0 00-1.947.81 2.772 2.772 0 00-.807 1.954v2.675c0 .733.291 1.435.807 1.953.517.518 1.217.81 1.947.81h57.136c.73 0 1.43-.292 1.947-.81.516-.518.806-1.22.807-1.953V2.942c0-.733-.291-1.435-.807-1.953a2.753 2.753 0 00-1.947-.81H2.932z" fill="#3F3D56"/>
    <path d="M45.228 2.585H7.286c-.932 0-1.688.759-1.688 1.694a1.69 1.69 0 001.688 1.694h37.942c.933 0 1.689-.758 1.689-1.694 0-.935-.756-1.694-1.689-1.694z" fill="#E6E6E6"/>
    <path d="M50.205 17.443H12.262a1.69 1.69 0 00-1.688 1.694c0 .935.756 1.694 1.688 1.694h37.943c.932 0 1.688-.759 1.688-1.694a1.69 1.69 0 00-1.688-1.694z" fill="#2E8C8D"/>
    <path d="M50.205 28.215H12.262a1.69 1.69 0 00-1.688 1.694c0 .935.756 1.694 1.688 1.694h37.943c.932 0 1.688-.759 1.688-1.694a1.69 1.69 0 00-1.688-1.694zm0 10.772H12.262c-.932 0-1.688.759-1.688 1.694a1.69 1.69 0 001.688 1.694h37.943a1.69 1.69 0 001.688-1.694c0-.935-.756-1.694-1.688-1.694z" fill="#E6E6E6"/>
    <path d="M57.446 6.11a.266.266 0 01-.37.065l-1.451-1.013a.267.267 0 01.305-.437l1.45 1.013a.267.267 0 01.066.371z" fill="#2E8C8D"/>
    <path d="M55.799 4.959a1.889 1.889 0 01-1.955.763 1.886 1.886 0 01-1.45-1.52 1.9 1.9 0 01.844-1.927 1.883 1.883 0 012.873 1.269 1.901 1.901 0 01-.312 1.415zm-2.706-1.901a1.424 1.424 0 00.59 2.115 1.411 1.411 0 001.548-.274 1.422 1.422 0 00-1.224-2.425c-.37.066-.699.276-.914.584z" fill="#2E8C8D"/>
    <path d="M58.424 22.447H4.576a.089.089 0 01-.089-.09.09.09 0 01.09-.088h53.847a.089.089 0 010 .178zm0 10.777H4.576a.089.089 0 01-.089-.09.09.09 0 01.09-.089h53.847a.089.089 0 010 .179zm0 10.776H4.576a.089.089 0 01-.089-.09.09.09 0 01.09-.088h53.847a.089.089 0 010 .178z" fill="#3F3D56"/>
  </g>
  <defs>
    <clipPath id="9lOuavcxWa">
      <path fill="#fff" d="M0 0h63v44H0z"/>
    </clipPath>
  </defs>
</svg>
