<svg fill="none" xmlns="http://www.w3.org/2000/svg" viewBox="0 0 835 364">
  <ellipse cx="185.662" cy="290.094" rx="42.644" ry="43.015" fill="#A9366D"/>
  <path d="M-55 238.921v-39.088c0-35.346 28.654-64 64-64h21.01c28.466 0 51.543 23.077 51.543 51.544v0c0 28.467 23.077 51.544 51.544 51.544h25.277c35.346 0 64-28.654 64-64v-39.088" stroke="#D6D3DD" stroke-width="18"/>
  <ellipse opacity=".8" cx="145.985" cy="151.778" rx="11.125" ry="11.495" fill="#251A3F"/>
  <circle opacity=".8" cx="820.5" cy="150.5" r="14.5" fill="#F7B129"/>
  <circle cx="118.915" cy="171.803" r="8.529" fill="#029D7F"/>
  <circle cx="720.237" cy="110.237" r="12.237" fill="#029D7F"/>
  <ellipse cx="793.5" cy="240.5" rx="16.5" ry="17.5" fill="#A9366D"/>
  <circle cx="466.5" cy="323.5" r="40.5" fill="#029D7F"/>
  <circle cx="29.918" cy="283.79" r="6.304" fill="#F7B129"/>
  <ellipse cx="115.948" cy="124.708" rx="18.912" ry="19.283" fill="#F7B129"/>
  <circle r="18" transform="matrix(-1 0 0 1 428 18)" fill="#029D7F"/>
  <circle r="9.5" transform="matrix(-1 0 0 1 386.5 67.5)" fill="#F7B129"/>
  <path d="M549 181.355v0c0 19.74 16.002 35.742 35.742 35.742h114.811c22.118 0 40.049-17.93 40.049-40.048v0c0-22.119-17.931-40.049-40.049-40.049h-99.335" stroke="#D6D3DD" stroke-width="18"/>
  <circle cx="544.277" cy="151.277" r="75.277" fill="#251A3F"/>
  <path d="M560.706 96H177v212.883h383.706V96z" fill="#F9F9FA"/>
  <g filter="url(#_kdK4qaIza)">
    <path fill-rule="evenodd" clip-rule="evenodd" d="M268.396 143.812c0-1.18.955-2.137 2.132-2.137h156.414c1.177 0 2.132.957 2.132 2.137v21.635c0 1.18-.955 2.137-2.132 2.137H270.528a2.135 2.135 0 01-2.132-2.137v-21.635z" fill="#fff"/>
    <path d="M268.53 143.812c0-1.107.895-2.004 1.998-2.004h156.414a2 2 0 011.998 2.004v21.635a2 2 0 01-1.998 2.003H270.528a2 2 0 01-1.998-2.003v-21.635z" stroke="#D8D8D8"/>
  </g>
  <path d="M282.253 161.307c3.752 0 6.795-3.049 6.795-6.811s-3.043-6.811-6.795-6.811c-3.753 0-6.795 3.049-6.795 6.811s3.042 6.811 6.795 6.811z" fill="#A9366D" stroke="#E0E0E0"/>
  <path d="M402.161 131.124a3.868 3.868 0 003.863-3.873 3.868 3.868 0 00-3.863-3.873 3.869 3.869 0 00-3.864 3.873 3.869 3.869 0 003.864 3.873zm11.591 0c2.203 0 3.997-1.729 3.997-3.873 0-2.143-1.794-3.873-3.997-3.873s-3.997 1.73-3.997 3.873c0 2.144 1.794 3.873 3.997 3.873zm11.591 0a3.869 3.869 0 003.864-3.873 3.869 3.869 0 00-3.864-3.873 3.869 3.869 0 00-3.864 3.873 3.869 3.869 0 003.864 3.873z" fill="#A29EAC" stroke="#E0E0E0"/>
  <path opacity=".7" fill-rule="evenodd" clip-rule="evenodd" d="M401.628 150.086c0-.59.477-1.068 1.066-1.068h19.984c.589 0 1.066.478 1.066 1.068v8.138c0 .59-.477 1.068-1.066 1.068h-19.984a1.067 1.067 0 01-1.066-1.068v-8.138z" fill="#A29EAC"/>
  <path d="M560.573 124.447H446.527v166.139h114.046V124.447z" fill="#fff" stroke="#DEDEDE"/>
  <path d="M460.249 202.049c3.747 0 6.795-2.896 6.795-6.482 0-3.586-3.048-6.481-6.795-6.481-3.746 0-6.794 2.895-6.794 6.481s3.048 6.482 6.794 6.482z" fill="#A29EAC" stroke="#E0E0E0"/>
  <path d="M550.447 192.425h-77.274a2.267 2.267 0 00-2.265 2.27 2.268 2.268 0 002.265 2.271h77.274a2.268 2.268 0 002.265-2.271 2.267 2.267 0 00-2.265-2.27z" fill="#DEDEDE"/>
  <path d="M460.249 223.684c3.747 0 6.795-2.895 6.795-6.481s-3.048-6.481-6.795-6.481c-3.746 0-6.794 2.895-6.794 6.481s3.048 6.481 6.794 6.481z" fill="#A29EAC" stroke="#E0E0E0"/>
  <path d="M550.447 213.526h-77.274a2.268 2.268 0 00-2.265 2.271 2.268 2.268 0 002.265 2.27h77.274a2.268 2.268 0 002.265-2.27 2.268 2.268 0 00-2.265-2.271z" fill="#DEDEDE"/>
  <path d="M460.249 244.786c3.747 0 6.795-2.896 6.795-6.482 0-3.586-3.048-6.481-6.795-6.481-3.746 0-6.794 2.895-6.794 6.481s3.048 6.482 6.794 6.482z" fill="#A29EAC" stroke="#E0E0E0"/>
  <path d="M550.447 234.627h-77.274a2.268 2.268 0 00-2.265 2.271 2.267 2.267 0 002.265 2.27h77.274a2.267 2.267 0 002.265-2.27 2.268 2.268 0 00-2.265-2.271z" fill="#DEDEDE"/>
  <path d="M460.249 265.887c3.747 0 6.795-2.896 6.795-6.482 0-3.586-3.048-6.481-6.795-6.481-3.746 0-6.794 2.895-6.794 6.481s3.048 6.482 6.794 6.482z" fill="#A29EAC" stroke="#E0E0E0"/>
  <path d="M550.447 255.729h-77.274a2.267 2.267 0 00-2.265 2.27 2.268 2.268 0 002.265 2.271h77.274a2.268 2.268 0 002.265-2.271 2.267 2.267 0 00-2.265-2.27z" fill="#DEDEDE"/>
  <path d="M526.769 131.932h-69.546a4.535 4.535 0 00-4.53 4.54 4.535 4.535 0 004.53 4.541h69.546a4.535 4.535 0 004.53-4.541 4.535 4.535 0 00-4.53-4.54z" fill="#A29EAC"/>
  <path d="M551.95 145.02h-96.459a2.8 2.8 0 00-2.798 2.804 2.802 2.802 0 002.798 2.805h96.459a2.802 2.802 0 002.798-2.805 2.8 2.8 0 00-2.798-2.804zm-29.577 9.615h-66.882a2.802 2.802 0 00-2.798 2.805 2.802 2.802 0 002.798 2.805h66.882a2.802 2.802 0 002.798-2.805 2.802 2.802 0 00-2.798-2.805z" fill="#F1F1F1"/>
  <path d="M560.637 110.557H446.559v14.424h114.078v-14.424z" fill="#fff" stroke="#DEDEDE"/>
  <path d="M446.66 177.601h114.046" stroke="#E2E2E2"/>
  <path d="M560.604 281.237H446.527v27.245h114.077v-27.245z" fill="#F9F9FA" stroke="#DEDEDE"/>
  <path d="M552.712 287.781H455.72a2.134 2.134 0 00-2.132 2.137v9.883c0 1.18.954 2.137 2.132 2.137h96.992a2.135 2.135 0 002.132-2.137v-9.883c0-1.18-.955-2.137-2.132-2.137z" fill="#DEDEDE"/>
  <path d="M475.571 114.697h-19.985a2.8 2.8 0 00-2.797 2.805 2.8 2.8 0 002.797 2.804h19.985a2.8 2.8 0 002.798-2.804 2.802 2.802 0 00-2.798-2.805z" fill="#F1F1F1"/>
  <path d="M230.426 145.147h-39.437a3.602 3.602 0 00-3.597 3.606 3.602 3.602 0 003.597 3.606h39.437a3.6 3.6 0 003.597-3.606 3.602 3.602 0 00-3.597-3.606z" fill="#029D7F"/>
  <path d="M310.897 122.176h-37.304a4.936 4.936 0 00-4.93 4.942 4.935 4.935 0 004.93 4.941h37.304a4.935 4.935 0 004.93-4.941 4.936 4.936 0 00-4.93-4.942z" fill="#A29EAC"/>
  <path d="M230.159 155.564h-38.903a3.869 3.869 0 00-3.864 3.873 3.869 3.869 0 003.864 3.873h38.903a3.869 3.869 0 003.864-3.873 3.869 3.869 0 00-3.864-3.873zm0-32.052h-38.903a3.869 3.869 0 00-3.864 3.873 3.869 3.869 0 003.864 3.873h38.903a3.869 3.869 0 003.864-3.873 3.869 3.869 0 00-3.864-3.873zm.134 43.004h-39.17a3.735 3.735 0 00-3.731 3.739c0 2.065 1.67 3.74 3.731 3.74h39.17c2.06 0 3.73-1.675 3.73-3.74a3.735 3.735 0 00-3.73-3.739zm0-32.053h-39.17a3.735 3.735 0 00-3.731 3.74 3.735 3.735 0 003.731 3.739h39.17c2.06 0 3.73-1.674 3.73-3.739 0-2.066-1.67-3.74-3.73-3.74z" fill="#E1E1E1"/>
  <path d="M240.685 135.264h-1.866c-1.03 0-1.865.838-1.865 1.87v2.137c0 1.033.835 1.87 1.865 1.87h1.866c1.03 0 1.865-.837 1.865-1.87v-2.137c0-1.032-.835-1.87-1.865-1.87z" fill="#029D7F"/>
  <g filter="url(#_kdK4qaIzb)">
    <path fill-rule="evenodd" clip-rule="evenodd" d="M268.663 177.2c0-1.18.955-2.137 2.132-2.137h156.147c1.177 0 2.132.957 2.132 2.137v65.173c0 1.18-.955 2.137-2.132 2.137H270.795a2.135 2.135 0 01-2.132-2.137V177.2z" fill="#fff"/>
    <path d="M268.796 177.2a2 2 0 011.999-2.003h156.147a2 2 0 011.998 2.003v65.173a2 2 0 01-1.998 2.004H270.795a2.001 2.001 0 01-1.999-2.004V177.2z" stroke="#D8D8D8"/>
  </g>
  <path d="M349.668 180.939h-69.547a4.535 4.535 0 00-4.53 4.541 4.535 4.535 0 004.53 4.541h69.547a4.535 4.535 0 004.53-4.541 4.535 4.535 0 00-4.53-4.541z" fill="#A29EAC"/>
  <path d="M417.749 194.695h-139.36a2.802 2.802 0 00-2.798 2.805 2.8 2.8 0 002.798 2.804h139.36a2.8 2.8 0 002.798-2.804 2.802 2.802 0 00-2.798-2.805zm-46.364 10.551h-92.996a2.802 2.802 0 00-2.798 2.804 2.802 2.802 0 002.798 2.805h92.996a2.802 2.802 0 002.798-2.805 2.802 2.802 0 00-2.798-2.804z" fill="#DEDEDE"/>
  <path d="M282.253 238.375c3.746 0 6.795-2.895 6.795-6.481s-3.049-6.482-6.795-6.482-6.795 2.896-6.795 6.482c0 3.586 3.049 6.481 6.795 6.481z" fill="#A9366D" stroke="#E0E0E0"/>
  <path d="M323.155 230.087h-28.778a2.267 2.267 0 00-2.265 2.27 2.267 2.267 0 002.265 2.27h28.778a2.267 2.267 0 002.265-2.27 2.267 2.267 0 00-2.265-2.27z" fill="#DEDEDE"/>
  <path fill-rule="evenodd" clip-rule="evenodd" d="M393.274 227.416a4.535 4.535 0 00-4.53 4.54 4.535 4.535 0 004.53 4.541h22.915a4.535 4.535 0 004.53-4.541 4.535 4.535 0 00-4.53-4.54h-22.915z" fill="#A29EAC" stroke="#A29EAC"/>
  <g filter="url(#_kdK4qaIzc)">
    <path fill-rule="evenodd" clip-rule="evenodd" d="M268.663 254.393c0-1.18.955-2.137 2.132-2.137h156.147c1.177 0 2.132.957 2.132 2.137v65.174c0 1.18-.955 2.137-2.132 2.137H270.795a2.135 2.135 0 01-2.132-2.137v-65.174z" fill="#fff"/>
    <path d="M268.796 254.393c0-1.106.895-2.003 1.999-2.003h156.147a2 2 0 011.998 2.003v65.174a2 2 0 01-1.998 2.003H270.795a2.001 2.001 0 01-1.999-2.003v-65.174z" stroke="#D8D8D8"/>
  </g>
  <path d="M349.668 258.133h-69.547a4.535 4.535 0 00-4.53 4.54 4.535 4.535 0 004.53 4.541h69.547a4.535 4.535 0 004.53-4.541 4.535 4.535 0 00-4.53-4.54z" fill="#A29EAC"/>
  <path d="M417.749 271.889h-139.36a2.8 2.8 0 00-2.798 2.804 2.802 2.802 0 002.798 2.805h139.36a2.802 2.802 0 002.798-2.805 2.8 2.8 0 00-2.798-2.804zm-46.364 10.283h-92.996a2.802 2.802 0 00-2.798 2.805 2.8 2.8 0 002.798 2.804h92.996a2.8 2.8 0 002.798-2.804 2.802 2.802 0 00-2.798-2.805z" fill="#DEDEDE"/>
  <path d="M282.253 315.569c3.746 0 6.795-2.896 6.795-6.482 0-3.586-3.049-6.481-6.795-6.481s-6.795 2.895-6.795 6.481 3.049 6.482 6.795 6.482z" fill="#A9366D" stroke="#E0E0E0"/>
  <path d="M323.421 305.944h-28.778a2.268 2.268 0 00-2.265 2.271 2.267 2.267 0 002.265 2.27h28.778a2.267 2.267 0 002.265-2.27 2.268 2.268 0 00-2.265-2.271z" fill="#DEDEDE"/>
  <path fill-rule="evenodd" clip-rule="evenodd" d="M393.274 304.609a4.535 4.535 0 00-4.53 4.541 4.535 4.535 0 004.53 4.54h22.915a4.535 4.535 0 004.53-4.54 4.535 4.535 0 00-4.53-4.541h-22.915z" fill="#A29EAC" stroke="#A29EAC"/>
  <g filter="url(#_kdK4qaIzd)">
    <path fill-rule="evenodd" clip-rule="evenodd" d="M177 96h383.706v14.691H177V96z" fill="#fff"/>
  </g>
  <defs>
    <filter id="_kdK4qaIza" x="248.03" y="131.308" width="201.411" height="66.642" filterUnits="userSpaceOnUse" color-interpolation-filters="sRGB">
      <feFlood flood-opacity="0" result="BackgroundImageFix"/>
      <feColorMatrix in="SourceAlpha" values="0 0 0 0 0 0 0 0 0 0 0 0 0 0 0 0 0 0 127 0"/>
      <feOffset dy="10"/>
      <feGaussianBlur stdDeviation="10"/>
      <feColorMatrix values="0 0 0 0 0.2 0 0 0 0 0.2 0 0 0 0 0.2 0 0 0 0.15 0"/>
      <feBlend in2="BackgroundImageFix" result="effect1_dropShadow"/>
      <feBlend in="SourceGraphic" in2="effect1_dropShadow" result="shape"/>
    </filter>
    <filter id="_kdK4qaIzb" x="248.296" y="164.697" width="201.144" height="110.18" filterUnits="userSpaceOnUse" color-interpolation-filters="sRGB">
      <feFlood flood-opacity="0" result="BackgroundImageFix"/>
      <feColorMatrix in="SourceAlpha" values="0 0 0 0 0 0 0 0 0 0 0 0 0 0 0 0 0 0 127 0"/>
      <feOffset dy="10"/>
      <feGaussianBlur stdDeviation="10"/>
      <feColorMatrix values="0 0 0 0 0 0 0 0 0 0 0 0 0 0 0 0 0 0 0.1 0"/>
      <feBlend in2="BackgroundImageFix" result="effect1_dropShadow"/>
      <feBlend in="SourceGraphic" in2="effect1_dropShadow" result="shape"/>
    </filter>
    <filter id="_kdK4qaIzc" x="248.296" y="241.89" width="201.144" height="110.18" filterUnits="userSpaceOnUse" color-interpolation-filters="sRGB">
      <feFlood flood-opacity="0" result="BackgroundImageFix"/>
      <feColorMatrix in="SourceAlpha" values="0 0 0 0 0 0 0 0 0 0 0 0 0 0 0 0 0 0 127 0"/>
      <feOffset dy="10"/>
      <feGaussianBlur stdDeviation="10"/>
      <feColorMatrix values="0 0 0 0 0 0 0 0 0 0 0 0 0 0 0 0 0 0 0.1 0"/>
      <feBlend in2="BackgroundImageFix" result="effect1_dropShadow"/>
      <feBlend in="SourceGraphic" in2="effect1_dropShadow" result="shape"/>
    </filter>
    <filter id="_kdK4qaIzd" x="173" y="93" width="391.706" height="22.691" filterUnits="userSpaceOnUse" color-interpolation-filters="sRGB">
      <feFlood flood-opacity="0" result="BackgroundImageFix"/>
      <feColorMatrix in="SourceAlpha" values="0 0 0 0 0 0 0 0 0 0 0 0 0 0 0 0 0 0 127 0"/>
      <feOffset dy="1"/>
      <feGaussianBlur stdDeviation="2"/>
      <feColorMatrix values="0 0 0 0 0.882353 0 0 0 0 0.882353 0 0 0 0 0.882353 0 0 0 1 0"/>
      <feBlend in2="BackgroundImageFix" result="effect1_dropShadow"/>
      <feBlend in="SourceGraphic" in2="effect1_dropShadow" result="shape"/>
    </filter>
  </defs>
</svg>
