<svg xmlns="http://www.w3.org/2000/svg" fill="none" viewBox="0 0 55 51">
  <path d="M23.618 23.414a.295.295 0 01.158.167.31.31 0 01-.003.233l-.402.96.046.023-.274.651-.044-.024-1.438 3.437a.521.521 0 01-.251.267.5.5 0 01-.36.031l-2.237-.653a.385.385 0 01-.248-.22.408.408 0 01.004-.338l2.255-4.809a.487.487 0 01.225-.23.468.468 0 01.316-.036l2.2.524a.29.29 0 01.053.017z" fill="#3F3D56"/>
  <path d="M22.204 23.137l1.018.292a.07.07 0 00.054-.006.097.097 0 00.04-.047.109.109 0 01.046-.053.08.08 0 01.062-.007l.214.061a.19.19 0 01.08.048.25.25 0 01.057.085.303.303 0 01.005.215l-1.831 5.279a.272.272 0 01-.116.148.193.193 0 01-.167.015l-1.954-.73a.175.175 0 01-.067-.046.227.227 0 01-.046-.077.272.272 0 01.002-.187l1.936-5.06a.336.336 0 01.137-.171.241.241 0 01.192-.027l.227.065a.216.216 0 00.023.129.15.15 0 00.088.075z" fill="#2E8C8D"/>
  <path d="M33.194 13.375c-1.234 0-2.44-.37-3.465-1.065a6.3 6.3 0 01-2.298-2.835 6.392 6.392 0 01-.355-3.65 6.342 6.342 0 011.707-3.234A6.214 6.214 0 0131.977.863a6.164 6.164 0 013.604.36 6.254 6.254 0 012.799 2.326 6.374 6.374 0 01-.778 7.974 6.205 6.205 0 01-4.408 1.852zm0-12.333a5.887 5.887 0 00-3.3 1.014 6 6 0 00-2.188 2.7 6.087 6.087 0 00-.338 3.476 6.04 6.04 0 001.626 3.08 5.918 5.918 0 003.041 1.647 5.87 5.87 0 003.432-.343 5.957 5.957 0 002.666-2.216 6.071 6.071 0 00-.74-7.594 5.91 5.91 0 00-4.2-1.764zM47.94 20.748c-1.234 0-2.44-.37-3.466-1.065a6.3 6.3 0 01-2.297-2.835 6.392 6.392 0 01-.355-3.65 6.342 6.342 0 011.707-3.234 6.213 6.213 0 013.194-1.728 6.165 6.165 0 013.604.36 6.256 6.256 0 012.799 2.326 6.375 6.375 0 01-.778 7.974 6.205 6.205 0 01-4.408 1.852zm0-12.333a5.887 5.887 0 00-3.3 1.014 6 6 0 00-2.188 2.7 6.087 6.087 0 00-.338 3.476 6.04 6.04 0 001.625 3.08 5.917 5.917 0 003.042 1.646 5.87 5.87 0 003.432-.342 5.957 5.957 0 002.666-2.216 6.07 6.07 0 00-.74-7.594 5.91 5.91 0 00-4.2-1.764zM34.823 31.871c-1.233 0-2.44-.37-3.465-1.065a6.3 6.3 0 01-2.297-2.835 6.391 6.391 0 01-.355-3.65 6.341 6.341 0 011.707-3.234 6.212 6.212 0 013.193-1.728 6.164 6.164 0 013.604.36 6.256 6.256 0 012.8 2.326 6.375 6.375 0 01-.779 7.974 6.205 6.205 0 01-4.408 1.852zm0-12.333a5.886 5.886 0 00-3.3 1.014 6 6 0 00-2.188 2.7 6.087 6.087 0 00-.338 3.476 6.04 6.04 0 001.626 3.08 5.918 5.918 0 003.041 1.647 5.87 5.87 0 003.432-.343 5.957 5.957 0 002.666-2.215 6.07 6.07 0 00-.74-7.595 5.909 5.909 0 00-4.199-1.764z" fill="#CCC"/>
  <path d="M51.504 12.7l.742-.15s-.623.707-.742.752a3.06 3.06 0 000 .452c-1.426 6.196-6.683 3.459-6.683 3.459 1.916.045 2.08-.752 2.08-.752-1.115-.166-1.337-.903-1.337-.903a.454.454 0 00.594-.15c-1.203-.316-1.04-1.504-1.04-1.504.215.157.465.255.728.286-.134-.166-1.263-1.534-.58-2.241 0 0 .832 1.504 3.015 1.64l.149-.031a1.19 1.19 0 01-.03-.33c0-.42.164-.821.457-1.117a1.55 1.55 0 011.102-.463c1.04 0 1.263.602 1.263.602l.742-.452c-.015 0-.089.752-.46.903zm-13.908 9.394h-5.504a.531.531 0 00-.514.313.55.55 0 00-.05.207v5.587a.59.59 0 00.17.4.577.577 0 00.394.172h5.503a.548.548 0 00.38-.176.563.563 0 00.149-.396v-5.587a.52.52 0 00-.154-.376.504.504 0 00-.374-.144zm-4.023 5.568h-.945v-2.975h.945v2.975zm-.44-3.428h-.007a.51.51 0 01-.362-.154.524.524 0 01.003-.735.51.51 0 01.725 0 .524.524 0 01.003.735.51.51 0 01-.362.154zm3.893 3.427h-.945v-1.626c0-.39-.138-.656-.48-.656a.512.512 0 00-.484.353.653.653 0 00-.033.235v1.694h-.944v-2.975h.944v.414a.946.946 0 01.852-.484c.62 0 1.09.415 1.09 1.307v1.738z" fill="#3F3D56"/>
  <path fill-rule="evenodd" clip-rule="evenodd" d="M37.271 7.082c0-.789-.223-1.561-.643-2.226A4.093 4.093 0 0034.9 3.333a4.032 4.032 0 00-4.355.61 4.135 4.135 0 00-1.253 1.942 4.18 4.18 0 00-.022 2.32c.212.76.634 1.441 1.216 1.965a4.056 4.056 0 002.07.992V8.276h-1.035V7.082h1.036v-.91c0-1.034.609-1.606 1.54-1.606.306.004.611.03.913.08v1.017h-.514c-.507 0-.665.318-.665.645v.774h1.13l-.18 1.195h-.95v2.885a4.066 4.066 0 002.463-1.397c.631-.748.978-1.7.977-2.683z" fill="#3F3D56"/>
  <path d="M16.425 50.244h1.427l.679-6.32h-2.107v6.32z" fill="#FFB8B8"/>
  <path d="M20.398 50.528h-4.37v-1.71h2.682a1.67 1.67 0 011.193.501 1.711 1.711 0 01.495 1.209z" fill="#2F2E41"/>
  <path d="M9.052 50.244h1.427l.679-6.32H9.05v6.32z" fill="#FFB8B8"/>
  <path d="M12.905 50.528h-4.37v-1.71h2.681c.448 0 .878.18 1.194.501.317.32.495.755.495 1.209z" fill="#2F2E41"/>
  <path d="M13.264 10.22c1.745 0 3.16-1.178 3.16-2.633 0-1.454-1.415-2.633-3.16-2.633s-3.16 1.179-3.16 2.633c0 1.455 1.415 2.633 3.16 2.633zm10.522 17.672a1.042 1.042 0 00-.19-.462 1.229 1.229 0 00-.398-.349 1.43 1.43 0 00-.529-.17 1.488 1.488 0 00-.562.042L20.2 24.966l-1.67.713 2.736 2.772c.115.26.336.474.621.602.285.127.614.16.924.091a1.32 1.32 0 00.76-.465c.18-.231.256-.511.214-.787zM8.928 29.535a1.128 1.128 0 00.004-1.013 1.21 1.21 0 00-.338-.413 1.325 1.325 0 00-.494-.24l-.379-2.714-1.83-.189.593 3.826a1.13 1.13 0 00.151.843c.16.255.415.446.716.538.301.092.628.077.919-.04.29-.118.525-.33.658-.598z" fill="#FFB8B8"/>
  <path d="M6.375 28.126a.628.628 0 01-.398-.14.573.573 0 01-.205-.355l-.887-5.69a3.908 3.908 0 01.261-2.12l2.726-6.475c.111-.265.294-.497.53-.673a1.783 1.783 0 011.69-.227c.278.107.521.281.706.506.19.232.31.51.347.802.038.292-.01.588-.136.857l-1.285 2.735a17.865 17.865 0 00-1.574 9.79.558.558 0 01-.095.385.607.607 0 01-.331.238l-1.17.342a.64.64 0 01-.179.025z" fill="#CCC"/>
  <path d="M12.5 10.22a3.851 3.851 0 01-1.388-.23 3.425 3.425 0 01-1.157-.7 2.865 2.865 0 01-.725-1.046 2.54 2.54 0 01-.164-1.212c.045-.409.19-.805.425-1.163.235-.357.555-.668.94-.91a3.655 3.655 0 011.289-.5 3.901 3.901 0 011.413 0c.696-.365 1.505-.61 2.316-.548.81.062 1.612.477 1.916 1.13.303.651-.023 1.51-.777 1.776-.483.17-1.029.087-1.545.019-.516-.069-1.078-.114-1.527.116-.45.23-.651.846-.249 1.133.213.158.365.369.436.603a1.04 1.04 0 01-.039.71c-.202.452-.753.814-1.164.822zM8.527 48.138a.51.51 0 01-.379-.166.555.555 0 01-.15-.4l.514-20.305.056-.001 8.495-.193 1.466 19.744a.57.57 0 01-.085.341.535.535 0 01-.265.218l-.016.004-1.668.106a.508.508 0 01-.428-.042.538.538 0 01-.257-.36l-2.718-12.662a.185.185 0 00-.064-.105.171.171 0 00-.225.007.186.186 0 00-.057.11l-2.008 13.15a.56.56 0 01-.17.323.52.52 0 01-.326.14l-1.688.09-.027.001z" fill="#2F2E41"/>
  <path d="M11.53 29.18c-1.11 0-2.08-.172-2.615-.66-.344-.314-.493-.74-.442-1.268.19-1.984-.14-6.333-.45-9.631a5.97 5.97 0 01.237-2.295A5.896 5.896 0 019.347 13.3a5.49 5.49 0 011.709-1.39 5.387 5.387 0 012.105-.597c1.022-.074 3.414-.247 4.158 1.695 1.117 2.918.57 4.257.042 5.55-.449 1.1-.913 2.237-.344 4.372a32.267 32.267 0 001.14 3.478c.308.806.463 1.21.32 1.475-.113.208-.394.299-.873.394-.156.03-.363.075-.61.129-1.251.271-3.563.772-5.463.772z" fill="#CCC"/>
  <path d="M20.346 27.073h-.013a.588.588 0 01-.43-.204l-3.245-3.835a5.904 5.904 0 01-1.321-2.849l-1-6.056a1.511 1.511 0 01.295-1.17c.126-.167.286-.307.47-.413a1.636 1.636 0 011.23-.167c.205.053.398.145.567.271.17.126.31.284.416.464.105.18.173.378.198.583l.397 3.213a16.331 16.331 0 003.434 8.151l.227.286a.545.545 0 01-.028.711l-.77.83a.572.572 0 01-.427.185z" fill="#CCC"/>
  <path d="M37.854 14.854c1.373 0 2.487-1.14 2.487-2.547 0-1.406-1.114-2.546-2.487-2.546-1.374 0-2.487 1.14-2.487 2.546 0 1.407 1.113 2.547 2.487 2.547z" fill="#3F3D56"/>
  <path d="M38.351 13.666h-.506v-1.954a1.74 1.74 0 01-.654.393v-.47a1.48 1.48 0 00.43-.253.954.954 0 00.32-.432h.41v2.716z" fill="#3F3D56"/>
  <path d="M37.854 14.854c1.373 0 2.487-1.14 2.487-2.547 0-1.406-1.114-2.546-2.487-2.546-1.374 0-2.487 1.14-2.487 2.546 0 1.407 1.113 2.547 2.487 2.547z" fill="#2E8C8D"/>
  <path d="M38.351 13.666h-.506v-1.954a1.74 1.74 0 01-.654.393v-.47a1.48 1.48 0 00.43-.253.954.954 0 00.32-.432h.41v2.716z" fill="#fff"/>
  <path d="M52.486 22.73c1.388 0 2.514-1.14 2.514-2.547 0-1.406-1.126-2.546-2.514-2.546-1.389 0-2.514 1.14-2.514 2.546s1.125 2.546 2.514 2.546z" fill="#3F3D56"/>
  <path d="M52.187 20.599a.602.602 0 00.108.384.312.312 0 00.246.135.274.274 0 00.223-.11.584.584 0 00.09-.364.61.61 0 00-.097-.38.3.3 0 00-.474-.005.521.521 0 00-.096.34zm1.09-1.112l-.465.054a.37.37 0 00-.09-.225.251.251 0 00-.186-.072.31.31 0 00-.257.145 1.282 1.282 0 00-.133.604.554.554 0 01.447-.225.664.664 0 01.516.243.913.913 0 01.215.628.932.932 0 01-.226.655.797.797 0 01-.945.154.801.801 0 01-.26-.22c-.163-.209-.245-.55-.245-1.026 0-.488.085-.84.255-1.054a.81.81 0 01.663-.323.679.679 0 01.473.17.813.813 0 01.239.492z" fill="#3F3D56"/>
  <path d="M52.486 22.73c1.388 0 2.514-1.14 2.514-2.547 0-1.406-1.126-2.546-2.514-2.546-1.389 0-2.514 1.14-2.514 2.546s1.125 2.546 2.514 2.546z" fill="#2E8C8D"/>
  <path d="M52.187 20.599a.602.602 0 00.108.384.312.312 0 00.246.135.274.274 0 00.223-.11.584.584 0 00.09-.364.61.61 0 00-.097-.38.3.3 0 00-.474-.005.521.521 0 00-.096.34zm1.09-1.112l-.465.054a.37.37 0 00-.09-.225.251.251 0 00-.186-.072.31.31 0 00-.257.145 1.282 1.282 0 00-.133.604.554.554 0 01.447-.225.664.664 0 01.516.243.913.913 0 01.215.628.932.932 0 01-.226.655.797.797 0 01-.945.154.801.801 0 01-.26-.22c-.163-.209-.245-.55-.245-1.026 0-.488.085-.84.255-1.054a.81.81 0 01.663-.323.679.679 0 01.473.17.813.813 0 01.239.492z" fill="#fff"/>
  <path d="M39.927 33.521c1.389 0 2.514-1.14 2.514-2.546s-1.126-2.546-2.514-2.546c-1.389 0-2.514 1.14-2.514 2.546s1.126 2.546 2.514 2.546z" fill="#3F3D56"/>
  <path d="M39.616 30.34a.327.327 0 00.082.237.293.293 0 00.22.085.295.295 0 00.223-.086.328.328 0 00.083-.239.318.318 0 00-.082-.229.29.29 0 00-.219-.086.296.296 0 00-.224.087.318.318 0 00-.083.23zm-.045 1.138a.48.48 0 00.103.328.333.333 0 00.258.118.316.316 0 00.25-.113.482.482 0 00.1-.328.434.434 0 00-.101-.3.33.33 0 00-.256-.113.298.298 0 00-.267.129.486.486 0 00-.087.279zm-.056-.626a.575.575 0 01-.362-.549.66.66 0 01.2-.491.922.922 0 011.13 0 .65.65 0 01.2.491.589.589 0 01-.35.55.667.667 0 01.432.652.796.796 0 01-.228.602.777.777 0 01-.596.227.881.881 0 01-.58-.19.751.751 0 01-.272-.617.785.785 0 01.103-.396.668.668 0 01.323-.279z" fill="#3F3D56"/>
  <path d="M39.927 33.521c1.389 0 2.514-1.14 2.514-2.546s-1.126-2.546-2.514-2.546c-1.389 0-2.514 1.14-2.514 2.546s1.126 2.546 2.514 2.546z" fill="#2E8C8D"/>
  <path d="M39.616 30.34a.327.327 0 00.082.237.293.293 0 00.22.085.295.295 0 00.223-.086.328.328 0 00.083-.239.318.318 0 00-.082-.229.29.29 0 00-.219-.086.296.296 0 00-.224.087.318.318 0 00-.083.23zm-.045 1.138a.48.48 0 00.103.328.333.333 0 00.258.118.316.316 0 00.25-.113.482.482 0 00.1-.328.434.434 0 00-.101-.3.33.33 0 00-.256-.113.298.298 0 00-.267.129.486.486 0 00-.087.279zm-.056-.626a.575.575 0 01-.362-.549.66.66 0 01.2-.491.922.922 0 011.13 0 .65.65 0 01.2.491.589.589 0 01-.35.55.667.667 0 01.432.652.796.796 0 01-.228.602.777.777 0 01-.596.227.881.881 0 01-.58-.19.751.751 0 01-.272-.617.785.785 0 01.103-.396.668.668 0 01.323-.279z" fill="#fff"/>
</svg>
