<svg fill="none" xmlns="http://www.w3.org/2000/svg" viewBox="0 0 24 24">
  <g clip-path="url(#fQTT_kdECa)">
    <path d="M12 8.19c1.938 0 3.509-1.834 3.509-4.095C15.509 1.833 13.938 0 12 0S8.491 1.833 8.491 4.095c0 2.261 1.571 4.095 3.509 4.095z" fill="#E93866"/>
    <path d="M23.926 22.678L19.92 7.475a.913.913 0 00-.247-.36.734.734 0 00-.364-.175.686.686 0 00-.393.052.805.805 0 00-.321.267l-6.592 5.448.02.02L5.406 7.26a.806.806 0 00-.322-.267.686.686 0 00-.392-.052.734.734 0 00-.365.176.912.912 0 00-.246.36l-4.005 15.2a1.057 1.057 0 00.044.892c.072.132.17.24.288.316A.704.704 0 00.791 24h7.988a.48.48 0 00.212-.047.55.55 0 00.18-.138.654.654 0 00.12-.209.732.732 0 00.042-.247v-1.975a.699.699 0 00-.16-.453.512.512 0 00-.389-.188H3.502l2.395-9.09 13.631 12.076c.198.176.44.272.69.271h2.985a.702.702 0 00.385-.11.854.854 0 00.291-.316 1.057 1.057 0 00.047-.895z" fill="#261A3E"/>
  </g>
  <defs>
    <clipPath id="fQTT_kdECa">
      <path fill="#fff" d="M0 0h24v24H0z"/>
    </clipPath>
  </defs>
</svg>
