<svg fill="none" xmlns="http://www.w3.org/2000/svg" viewBox="0 0 254 254">
  <g filter="url(#AaWr8qd8n_Pa)" clip-rule="evenodd">
    <path fill-rule="evenodd" d="M47 33a4 4 0 00-4 4v160a4 4 0 004 4h160a4 4 0 004-4V37a4 4 0 00-4-4H47z" fill="#fff"/>
    <path d="M47 33a4 4 0 00-4 4v160a4 4 0 004 4h160a4 4 0 004-4V37a4 4 0 00-4-4H47z" stroke="#BDBDBD"/>
  </g>
  <defs>
    <filter id="AaWr8qd8n_Pa" x=".5" y=".5" width="253" height="253" filterUnits="userSpaceOnUse" color-interpolation-filters="sRGB">
      <feFlood flood-opacity="0" result="BackgroundImageFix"/>
      <feColorMatrix in="SourceAlpha" values="0 0 0 0 0 0 0 0 0 0 0 0 0 0 0 0 0 0 127 0"/>
      <feOffset dy="10"/>
      <feGaussianBlur stdDeviation="21"/>
      <feColorMatrix values="0 0 0 0 0 0 0 0 0 0 0 0 0 0 0 0 0 0 0.12 0"/>
      <feBlend in2="BackgroundImageFix" result="effect1_dropShadow"/>
      <feBlend in="SourceGraphic" in2="effect1_dropShadow" result="shape"/>
    </filter>
  </defs>
</svg>
