<svg fill="none" xmlns="http://www.w3.org/2000/svg" viewBox="0 0 174 44">
  <g filter="url(#3sFa0REa3yJa)" clip-rule="evenodd">
    <path fill-rule="evenodd" d="M7 3a4 4 0 00-4 4v28a4 4 0 004 4h160a4 4 0 004-4V7a4 4 0 00-4-4H7z" fill="#fff"/>
    <path d="M7 3a4 4 0 00-4 4v28a4 4 0 004 4h160a4 4 0 004-4V7a4 4 0 00-4-4H7z" stroke="#029D7F"/>
  </g>
  <defs>
    <filter id="3sFa0REa3yJa" x=".5" y=".5" width="173" height="43" filterUnits="userSpaceOnUse" color-interpolation-filters="sRGB">
      <feFlood flood-opacity="0" result="BackgroundImageFix"/>
      <feColorMatrix in="SourceAlpha" values="0 0 0 0 0 0 0 0 0 0 0 0 0 0 0 0 0 0 127 0"/>
      <feOffset dy="2"/>
      <feGaussianBlur stdDeviation="1"/>
      <feColorMatrix values="0 0 0 0 0 0 0 0 0 0 0 0 0 0 0 0 0 0 0.24 0"/>
      <feBlend in2="BackgroundImageFix" result="effect1_dropShadow"/>
      <feColorMatrix in="SourceAlpha" values="0 0 0 0 0 0 0 0 0 0 0 0 0 0 0 0 0 0 127 0"/>
      <feOffset/>
      <feGaussianBlur stdDeviation="1"/>
      <feColorMatrix values="0 0 0 0 0 0 0 0 0 0 0 0 0 0 0 0 0 0 0.12 0"/>
      <feBlend in2="effect1_dropShadow" result="effect2_dropShadow"/>
      <feBlend in="SourceGraphic" in2="effect2_dropShadow" result="shape"/>
    </filter>
  </defs>
</svg>
